<?xml version="1.0" encoding="UTF-8" standalone="no"?>
<svg xmlns="http://www.w3.org/2000/svg" width="250" height="249.9769" xmlns:dc="http://purl.org/dc/elements/1.1/" xmlns:cc="http://creativecommons.org/ns#" xmlns:rdf="http://www.w3.org/1999/02/22-rdf-syntax-ns#">
  <defs>
    <clipPath id="a">
      <path d="M36 117h54v53.995H36V117z"/>
    </clipPath>
  </defs>
  <metadata>
    <rdf:RDF>
      <cc:Work>
        <dc:format>
          image/svg+xml
        </dc:format>
        <dc:type rdf:resource="http://purl.org/dc/dcmitype/StillImage"/>
        <dc:title/>
      </cc:Work>
    </rdf:RDF>
  </metadata>
  <g clip-path="url(#a)" transform="matrix(4.62965 0 0 -4.62965 -166.668 791.646)">
    <path fill="#ffffff" d="M89.5954 143.9982c0-14.691-11.907-26.602-26.589-26.602-14.696 0-26.61 11.911-26.61 26.602 0 14.693 11.914 26.602 26.61 26.602 14.682 0 26.589-11.909 26.589-26.602"/>
    <path fill="#8c1515" d="M48.3522 144.4714c.008.276-.164.452-.627.472-.374.012-.559-.134-.576-.463l-.005-.134 1.202-.047.006.172zm-1.512-.035c.03.664.432.883.945.864.51-.021.895-.299.876-.82l-.022-.53-1.815.065.016.421zm1.937 1.4348l-1.798.256.051.347 1.795-.26-.048-.343zm-1.0515 2.4198l-.175-.718.424-.102.143.596.302-.075-.144-.594.445-.109.185.76.298-.074-.267-1.1-1.769.431.258 1.057.3-.072zm1.9213 1.7603l.305.663.284-.129-.453-.976-1.649.766.147.316 1.366-.64zm-.039 3.0312l1.066-.666c.318-.198.367-.516.175-.831-.197-.313-.508-.407-.824-.209l-1.068.665.186.297.969-.606c.256-.158.381-.135.477.016.094.152.061.275-.199.434l-.966.603.184.297zm1.421 1.3415l-.462-.573.338-.274.357.444.239-.198-.358-.438.596-.484-.22-.271-1.411 1.142.681.845.24-.193zm1.3354 1.354l-.324-.313 1.051-1.083-.251-.241-1.053 1.079-.325-.315-.214.219.899.878.217-.224zm2.6114.4895c.236.152.279.396.029.783-.206.321-.433.385-.706.205l-.113-.071.65-1.003.14.086zm-.893 1.221c.559.355.971.152 1.25-.277.269-.431.267-.905-.17-1.188l-.461-.295-.979 1.527.36.233zm2.604 1.0715l-.666-.311.187-.398.55.266.13-.28-.548-.265.198-.41.702.332.128-.277-1.016-.486-.779 1.64.98.47.134-.281zm1.4016.053c.143.046.368.111.299.324-.081.24-.298.146-.461.093l-.126-.042.142-.424.146.049zm-.058.774c.378.124.624-.109.692-.329.062-.189.006-.402-.138-.525l.589-.682-.348-.115-.534.617-.252-.083.233-.712-.332-.113-.568 1.726.658.216zm9.718-.249l-.707.198-.117-.422.546-.149-.082-.297-.547.149-.2-.736-.34.094.481 1.75 1.047-.288-.081-.299zm.9272-.8096c.133-.058.353-.154.435.06.099.228-.129.297-.295.363l-.119.047-.166-.41.145-.06zm.451.629c.376-.152.41-.487.32-.701-.075-.186-.252-.315-.451-.315l.019-.898-.341.14-.007.815-.25.107-.281-.709-.325.135.679 1.681.637-.255zm2.004-1.3324l-.647.352-.203-.381.53-.295-.149-.27-.537.295-.22-.399.683-.377-.149-.268-.985.546.876 1.589.95-.523-.149-.269zm-.2404-1.6403l1.02 1.504.288-.198-1.021-1.506-.287.2zm2.1722-.2562l.451.546.269-.221-1.158-1.401-.269.226.509.612-.445.371-.509-.614-.267.221 1.154 1.398.272-.224-.453-.546.446-.368zm1.8002-1.209l-.505.536-.314-.301.422-.442-.224-.212-.423.442-.331-.313.535-.566-.225-.213-.774.825 1.319 1.246.744-.788-.224-.214zm-.7238-1.4847l1.425 1.124.213-.276-1.424-1.125-.214.277zm2.4532-.866l-.247.382-1.262-.829-.192.293 1.259.829-.247.378.256.168.686-1.05-.253-.171zm-.122-3.2168l-.139.334 1.067.696-1.252-.258-.138.328 1.537 1.039.136-.322-1.105-.682v-.004l1.269.29.143-.36-1.097-.69.004-.003 1.268.281.136-.319-1.829-.33zm1.9938-1.4617l-.184.712-.424-.107.158-.595-.298-.076-.155.593-.447-.115.198-.755-.294-.078-.286 1.092 1.755.462.275-1.053-.298-.08zm-.1166-1.7428l.701.092.043-.345-1.796-.238-.052.348.795.104-.077.571-.791-.104-.044.346 1.804.24.046-.349-.707-.092.078-.573zm.4966-2.2142l-.004.454-1.507-.012-.007.346 1.513.016-.002.454.306.002.012-1.256-.311-.004z"/>
    <path fill="#8c1515" d="M63.0073 126.09c-9.903 0-17.916 8.017-17.916 17.908 0 9.892 8.013 17.911 17.916 17.911 9.877 0 17.901-8.019 17.901-17.911 0-9.891-8.024-17.908-17.901-17.908m0 36.266c-10.149 0-18.37-8.219-18.37-18.358 0-10.136 8.221-18.355 18.37-18.355 10.125 0 18.345 8.219 18.345 18.355 0 10.139-8.22 18.358-18.345 18.358"/>
    <path fill="#8c1515" d="M50.2832 136.0852l-.129-.064c-.042-.014-.062-.074-.042-.107.02-.043.058-.062.1-.043l.135.067c.046.023.062.073.046.112-.024.042-.062.056-.11.035m23.0072-4.539c-.032.018-.467-.133-.571-.219-.107-.09-.057-.237.031-.212.084.028.561.312.579.332.02.041 0 .076-.039.099m-7.236 3.9558c.066.053.136.09.084.117-.054.028-.104.037-.167-.014-.297-.211-.532-.313-.817-.538-.134-.117-.571-.641-.83-.763.003-.161.161-.156.277-.016.011.019.444.493.502.537.267.228.404.281.684.491l.267.186zm-1.421-.1397l.154.064s.079.058.115.09c.043.037.039.175-.105.117l-.098-.061-.011-.012-.048-.021-.127-.066c-.037-.023-.028-.054-.013-.09.019-.044.09-.039.133-.021m-.4296-.062l-.096-.071-.066-.024-.125-.076c-.033-.013-.023-.045-.012-.089.02-.033.089-.033.127-.014l.162.062.077.055c.115.09.042.215-.067.157m3.1002.458c-.025.032-.074.037-.118.01-.245-.166-.497-.323-.727-.507-.128-.095-.242-.198-.341-.307-.078-.089-.168-.281-.275-.331-.05-.021-.087-.065-.077-.111.001-.046.046-.06.102-.044.197.079.299.327.443.475.269.271.63.467.947.69.041.031.064.09.046.125m-1.6632-1.3893c-.083.016-.177-.072-.263-.249-.019-.037-.078-.145-.137-.182-.04-.023-.063-.083-.052-.131.008-.046.049-.062.09-.035.093.065.162.185.205.273.083.144.109.144.109.144.038-.013.075.024.091.074.012.055-.004.099-.043.106m2.2465.9314c-.028.009-.35-.173-.396-.216-.053-.032-.242-.215-.22-.281.008-.041.05-.07.095-.056.088.028.125.088.162.138l.062.076.117.054c.094.032.205.062.237.181.01.042-.019.09-.057.104m-.9085-.7458c-.044-.027-.097-.062-.097-.062l-.007-.004-.05-.024-.132-.069c-.044-.027-.025-.051-.004-.089.018-.04.087-.037.126-.023l.151.064s-.005.004.046.037c.048.025.068.039.068.039-.038-.019.047.032.031.069-.029.035-.087.09-.132.062m1.5147.1784c-.094.005-.182-.083-.246-.15l-.068-.066c-.033-.026-.038-.09-.01-.116.032-.039.076-.048.107-.006l.084.071c.032.037.096.097.12.097.046.011.084.037.084.085 0 .039-.034.078-.071.085m.0345-2.1015c.081.019.126.078.175.136l.059.074c.042.03.12.062.144.062.039 0 .083.034.088.075.008.037-.012.072-.052.082-.092.036-.261-.077-.265-.077l-.103-.112c-.02-.03-.056-.076-.076-.079-.041-.009-.074-.05-.059-.095.007-.047.044-.071.089-.066"/>
    <path fill="#8c1515" d="M77.619 136.0746c-.138.029-.274.041-.364.029-.073.043-.152.079-.241.114-.123.037-.252.062-.388.069-.177.009-.373-.025-.562-.108-.249-.007-.642-.194-.999-.36-.144-.064-.315.085-.436.037-.096-.037-.249-.078-.32-.087-.45.179-.361.043-.75.345-.416.115-.962.237-1.319.435-.346.062-.655.406-1.026.205-.484-.119-1.041-.279-1.469-.566-.163-.019-.382-.109-.528 0-.411.049-.75.38-1.172.235-.249.101-.539.145-.755.325h-.483c-.002 0-.002 0-.002-.005-.832-.06-1.239-.359-2.133-.504-.186-.033-.332-.107-.921-.145.006.01-.123.393.101.718v.435c-.012.156-.015.475-.019.604-.014.011-.032.016-.05.028-.15.444.117 1.125-.23 1.533.258.46-.014.91.113 1.421.145.037.328-.383.446-.058.186-.135.374-.485.573-.29h.062c-.052-.209.074-.41.115-.613-.082-.2-.513-.243-.306-.487.167-.139.372 0 .552-.097.125.143.222.301.384.35.09-.049.105-.134.025-.207l-.06-.046c.049-.182.451-.348.125-.528v-.166l.237-.032c.025-.29-.369-.271-.214-.62.22-.16.397.176.686.063.164.119.114.258.193.417-.142.2.256.267.12.541-.098.191-.145.412-.279.552-.053.313-.43.392-.468.726-.439.053-.582.495-.849.726.012.082.083.131.186.107.104.053.136-.071.213-.107-.036-.123.05-.22.151-.268.113.094.01.268.09.375.109-.025.295.072.357-.085-.027-.106-.148-.205-.062-.311.14-.106.347-.283.563-.186.187.042.301-.358.42-.046-.022-.312-.084-.671.067-.993-.151-.204-.612.286-.324-.202.262-.097.399-.102.535-.392.127-.051.259-.15.386-.124.395.387.365 1.045.262 1.531-.163.191-.226.352-.237.617-.161.215-.442.3-.535.542-.31.096-.596.28-.96.29-.023.117-.152.117-.263.117-.4.631-1.301.656-1.533 1.319.224.067.361-.22.594-.161.102-.122.339.023.426-.133h.085c-.011.085.028.185-.022.313.11-.128.381-.218.35-.444l.1-.058c.121.594-.6.764-.724 1.283.671-.026.762-.714 1.079-1.138 0-.247-.283-.471-.18-.69.15-.118.286-.141.452-.118.309.18.348.483.681.522.153-.172.314-.379.536-.464.151.122.174.279.151.464.076.019.152-.025.192-.112.02-.034.082-.097.105-.034.164.121-.039.244-.049.345-.089.078-.145.152-.123.264.172.083.281-.122.364-.264-.037-.408.522-.684.443-1.117.086-.168.266-.157.413-.145.214.211.387.074.634.103.079-.103-.081-.076.037-.175.088.123.23.175.114.323-.245.34-.232.9-.785 1.011-.14.253-.334.536-.682.502-.294.29-.854.106-1.052.497-.383.016-.631.383-1.041.367-.314.219-.813-.341-.965.147.152.072.274.155.423.207.028.153-.048.337.063.457.177-.109.329.097.479.038.01.072-.041.219.084.229.246.048.178-.113.301-.21-.014-.05-.024-.076-.063-.124-.075 0-.145-.021-.159.06-.124-.132-.135-.339-.085-.493.122-.276.382-.051.518-.277.198.074.533-.256.632.106.115.196-.099.316-.144.471-.364.112-.426.515-.852.527-.148.057-.16.195-.232.315-.274.048-.527-.025-.691.253-.027.107.042.24.149.24.172-.048.16-.424.392-.325.07.108.234.291.083.433-.073.049-.065.136-.143.184-.041-.084.092-.207 0-.292-.147.085-.332.157-.332.292v.045c.088.099.203-.045.279 0-.366.485-1.051-.217-1.297.391-.167.182-.503.071-.564.371-.278-.068-.225.23-.341.352.037.253-.2.35-.291.545-.095.302-.304.639-.186.952.137.108.028.304 0 .433.013.111-.028.221.028.29.176-.069.357-.274.579-.29.211-.07.287-.636.598-.311.156-.145.448-.095.538-.35-.042-.194.062-.341.121-.497.048-.049.139-.01.214-.022.051.362.507-.011.539.374.115.06.284.11.325.227.232-.024.31-.361.596-.334.062.217.392.182.572.143.211-.601.904.074 1.107-.557-.034-.166.042-.338.2-.375.284.095.3.317.273.581-.01.641-.68.58-1.021.978-.287-.023-.384.412-.709.293-.275.458-.898.078-1.258.324-.363.094-.876-.082-1.074.348-.328-.035-.524.258-.85.233-.047.014-.093.073-.146.108.023.097.075.23.186.239.135.086.335-.204.41.051h.1c.11-.122-.148-.244 0-.336.083-.037.3.011.26.165.126.472-.52.595-.81.799-.158.058-.114-.087-.238-.112-.251-.062-.282.142-.373.288-.02.191-.127.267-.242.425.023.349-.095.512.065.852-.01.155-.171.638-.108.772-.026.192.068.435-.086.578.086-.398-.372-.594-.199-1.015-.07-.06-.07-.097-.149-.122l-.066.23c-.122-.039-.122-.422-.339-.205.154.18-.046.509.187.643.03.12-.07.338.09.348h.095c.005-.059-.033-.132.033-.169.102.268-.091.495-.033.774.236.06.112-.518.467-.341.271-.203-.01-.41.255-.612-.187-.463.163-.827.438-1.189.259.037.518-.273.776-.325.078.134.06.378.302.243.152-.277.274-.553.624-.577-.042-.123.075-.195.151-.241.251.118.41-.21.661-.053.138-.134.035-.24 0-.383.183-.147.249-.559.573-.402.165.098.229.255.268.435.205-.253.567.278.503-.23.276-.24.581-.146.893-.146.057-.034.116-.059.124-.094 0-.156-.094-.12-.048-.26.111-.113.281-.109.391-.023.237.292.098.405.115.665-.612.645-1.377 1.463-2.37 1.455-.303.42-.87.24-1.261.482-.737.29-1.248.749-1.905 1.221-.083.232-.344.412-.299.636.121.037.216.114.166.273-.123.131-.348.201-.404.398.149.097.342-.1.468-.234.304-.224.317-.661.726-.785.083-.419.582-.214.835-.312.148.049.387-.119.475.107-.076.157-.222.292-.237.474.515-.039.411-.7.924-.787.226.061.226.462.55.264-.014-.155.109-.274.234-.348.201-.048.216.183.36.252.027.302-.024.46-.21.679-.109.216-.384.085-.536.191-.482.364-1.1.447-1.749.437-.334.263-.819.182-1.161.471-.193.181-.607.2-.658.543-.132.17-.441.327-.315.676.074.171.294.153.431.113.222-.149.279-.509.609-.55.175.426-.553.556-.609.961.317-.208.581-.524.872-.786-.026-.267.249-.462.447-.584l.216.23c.121-.12.27-.371.47-.493.173.081.595-.172.595.205.013.315-.372.384-.233.762-.475.562-1.111.762-1.707 1.039-.311.373-.715.76-.797 1.241-.175.154-.035.267-.14.463-.014.071-.014.354-.098.391-.173 0-.39-.029-.425-.2-.021-1.391-1.638-1.948-2.759-2.476-.422-.234-.76-.665-.922-1.133-.026-.17.025-.318.147-.435.05-.049.137-.018.213-.029.097.206.445.216.536.464.202-.343.387.141.56.141.102.257.55.076.49.435.06.117.174.23.323.182.036-.094.047-.242.187-.226.074-.016.175-.196.298-.244.289-.071.365.518.627.139-.013-.355-.152-.759-.542-.891-.359-.049-.719-.206-.893-.556.034-.205-.176-.127-.275-.23-.628.088-.866-.493-1.371-.636-.23-.172-.191-.462-.275-.69.146-.155.335-.194.506-.293.539.064.442.714.964.834.115.089.227 0 .263-.107.012-.06 0-.107-.048-.145.048-.071.187.026.236-.083-.215-.193-.049-.764-.49-.619-.034.281.18.403.244.633-.158-.009-.381-.014-.481-.2.028-.369-.373-.686-.688-.829-.102-.037-.195-.053-.27-.145.061-.35-.389-.497-.236-.823-.042-.039-.025-.107-.025-.167.211-.376.35.106.559.142.246.168.162.663.6.581.263.253.477.433.723.663.115.133.038.375.064.5.137.154.189.395.412.454.01-.143-.163-.3-.238-.454.015-.097-.026-.21.036-.291.175.068.264.199.264.408h.152c.121-.131-.241-.214-.029-.352.211.138.511.173.662.401.075.036.111-.037.176-.049.014-.209-.278-.278-.176-.493-.089-.15-.109-.263-.162-.375l-.007-.079c-.087-.082-.053-.227-.132-.275-.47-.565-1.383-.493-1.708-1.194.087-.179.21.12.299-.052-.089-.349-.499-.166-.69-.383-.469.316-.718-.433-1.231-.29-.225-.156-.653-.216-.561-.604.149-.253.385.123.6-.087-.326-.216-.811-.311-.899-.762.236-.384-.515-.636-.037-.975.223-.062.322.205.448.291-.237.389.284.3.337.605.198.079.382.41.625.263.075-.122.249-.191.384-.122.334.108.652.242.96.412.815-.106.725 1.124 1.496.786-.158-.191-.261-.424-.384-.678-.483-.387-.684-1.208-1.384-1.446-.354-.521-1.271-.727-1.346-1.453-.038-.18-.178-.242-.264-.376-.063-.29-.163-.81.086-.976.115-.037.188.035.276.083.021.132-.337.325-.039.438.102-.016.198-.113.299-.039-.034.158-.239.242-.208.412.223.105.321-.157.359-.314.25-.098.266.253.42.337.104.302-.43.232-.228.531.217.146.556.123.746.341.008-.05.075-.098.109-.147.216.062.302.389.541.184.133.084.299.037.421-.037.125.191.178.399.39.579-.042.242.059.456.149.617.07.023.136-.026.149-.086.011-.518-.186-.978-.661-1.305-.042-.569-.6-.677-.837-1.073-.253-.306-.824-.316-.834-.726-.298-.28-.677-.301-1.052-.375-.361-.039-.772.074-1.075-.085-.42-.118-.807-.35-.994-.756-.504-.09-.432-.811-.988-.936-.223-.441-.711-.866-.386-1.411-.151-.288-.598-.631-.298-.933.409-.288.537.376.834.461.097.138.127.313.261.423l-.022.031c.174.184.366.333.549.442 0 0-.002.008 0 .009.111.151.488.131.346.442-.098.066-.037.226-.047.345.086.106.283-.011.346.168.078.208-.047.532.302.581.048.011.066-.032.097-.06.036-.12-.206-.211-.031-.313.194.057.226.278.444.102.161.045.125.253.275.271.078-.2-.064-.387.175-.497.202 0 .352.11.488.271-.05.194-.05.321 0 .514.324.145.036-.306.3-.348.246.034.424-.177.648-.102.476.257.077.762.424 1.09.086.252.052.604.327.724h.1c-.1-.276-.341-.627-.152-.952-.024-.121.128-.243.237-.143.102.371.714.447.563.954.222.205.139.519.151.809-.053.073-.286.191-.109.312.046.061.13.022.205.037.137-.096.164-.276.149-.411-.11-.12-.048-.341-.061-.459.076-.072.187-.099.234-.182.027-.23-.307-.251-.274-.483-.009-.244.068-.521-.173-.677.029-.254-.164-.423-.175-.667-.121-.152-.121-.407-.359-.455-.375-.024-.586-.392-.935-.473-.152-.576-1.028-.771-.864-1.442-.372-.31-.39-.693-.789-.962.065-.168-.11-.253-.048-.431-.185-.446-.827-.377-1.016-.873.162-.069.152-.253.299-.348-.021-.218-.458-.28-.236-.52.063-.242-.198-.394.007-.571v-.089c.161-.082.232.131.296.193l.049.2c.15.025.159-.135.274-.163.174.071.161.347.324.371.251-.171.462.059.66.144.019.056.043.117.083.16v.377c-.025.013-.057.027-.083.041-.071.217-.088.396-.112.618-.048.119-.119.122-.068.29.36-.219.573.348.875.392.045-.021.007-.093.025-.143-.115-.056-.064-.116-.025-.19.08-.144.211-.11.324-.039.247.328.349.731.47 1.101 0 .205-.025.592.187.765.226.108.254.334.513.369.053.366 0 .768.113 1.107h.187c-.151-.38.21-1.128-.336-1.271-.114-.173-.325-.256-.238-.497.098-.121.098-.341.327-.291.211.145.175.482.512.433 0-.158.075-.325.057-.486.04-.184.055-.249.06-.433l.001-.007c.019-.425-.043-.872.065-1.243-.124-.374-.071-.822-.211-1.191.29-.283-.184-.642-.04-.99-.097-.113-.033-.214-.048-.368l.088-.111-.02-.992c-.414-.097-.693-.201-.963-.302-.844.241-2.836 1.633-3.533 1.52 0 0-.196-.009-.284 0-.092.006-.32.018-.492.018-.171 0-.348-.078-.424-.094-.076-.019-.321-.051-.497-.062-.175-.014-.273-.023-.315-.047-.271-.156-.638-.08-.849-.35-.511.184-.912-.145-1.28-.385-.497.121-.865.357-1.278.645-.339-.083-.483.256-.829.16-.226.202-.546-.056-.768.133-.298.004-.519-.166-.789-.223-.357-.2-.741-.335-1.162-.378-.203-.205-.3-.283-.413-.314-1.225 2.356-1.911 5.03-1.911 7.858 0 9.469 7.67 17.142 17.14 17.142 9.459 0 17.128-7.673 17.128-17.142 0-2.915-.731-5.662-2.024-8.067-.049.026-.268.099-.482.143m-1.767-.737l.344.18s.188.087.237.128c.053.04-.023.076-.129.053-.101-.024-.24-.119-.24-.119s-.283-.154-.322-.201c-.043-.048-.227-.145-.227-.145-.075.024-.438.088-.913.371.117.101.355-.029.46.01.105.045.166.094.302.128.254.055.521.252.823.231.197-.014.368.083.523.064.108-.012.225-.053.388-.103.132-.037.297-.084.521-.132l.332-.143c.006 0-.189-.329-.187-.334-.004-.009-.014-.022-.014-.034-.098-.166-.207-.331-.31-.5-.145.01-.297.016-.444.031l-.135.02c-.156.027-.292.089-.398.184-.037.012-.069.021-.111.032.076.042.157.074.257.107l.033.011.138.046.07.067.059.036c.019.014.037.053.019.063-.019.015-.037.021-.048.011l-.092-.068-.051-.04-.124-.046-.034-.012c-.136-.032-.245-.089-.341-.145-.174.044-.365.074-.55.113l.164.136zm.864-1.587c-.035 0-.055 0-.096.005-.817-.166-1.914.064-2.613-.479-.563.157-1.181-.014-1.756.147-.3.246-.865-.06-1.133.258-.592.055-1.162.21-1.767.156-.387-.029-.575.357-.99.257-.191.179-.483.124-.737.17 0 0-.004-.002-.009-.002l-.622-.221c-.142-.052-.246-.123-.374-.134-.122-.016-.452-.134-.632-.159-.18-.023-.495-.147-.647-.166-.154-.016-.372-.099-.582-.135-.219-.04-.51-.04-.623-.102-.056-.03-.23-.035-.352-.035-.014.113-.064.242-.083.359v.008c-.008.059 0 .106.019.154.002.11.014.267.028.505-.055.211.029.486-.081.683-.026.23.003.595.041.813 1.29.134 1.691.401 2.628.654 0 0 .61.06.614.06.571.154.811-.468 1.357-.378.3-.096.591-.022.864-.161.61-.181 1.165-.446 1.752-.652.464 0 .848-.191 1.304-.239.128-.076.287-.064.418-.097.44-.03 1.281-.228 1.322-.08.038.145-.834.14-1.257.285-.249.016-.475.079-.714.145.038.019.058.049.087.083.054.047.075.069.095.065.028-.016.063.004.072.036.012.031-.006.069-.033.079-.106.032-.172-.048-.227-.102-.031-.036-.072-.071-.097-.071-.019 0-.042-.034-.052-.062-.103.021-.202.037-.301.048l.118.072c.053.036.102.075.147.085.037 0 .065.035.062.062-.008.034-.043.06-.069.058-.083-.007-.154-.063-.214-.108l-.11-.067c-.025-.026-.046-.065-.025-.088 0 0 .003-.007.008-.011h-.029c-.137.053-.284.127-.434.156.033.028.077.035.153.035.168 0 .294.069.398.202.019.023.014.063-.011.083-.022.021-.064.014-.085-.011-.079-.106-.168-.152-.302-.152-.18 0-.261-.076-.295-.143-.026 0-.052-.007-.076-.014-.136.074-.282.134-.422.201l.047.006.093.03.023.01h.072l.157.073.143.021c.101 0 .169.039.248.085.01-.005.021-.018.033-.009.032.004.05.041.045.074l-.009.028c-.004.02-.016.031-.037.039-.018.007-.039.006-.053-.008-.085-.059-.123-.084-.221-.084l-.18-.033-.053-.016-.168-.053-.054-.016-.05-.018-.098-.021-.039-.01c-.017-.006-.039-.013-.039-.013-.011 0-.028-.002-.04-.005-.064.028-.131.06-.198.099.166.447.677.251.958.518.292.028.686.177.911-.078.769-.175 1.625-.417 2.282-.82.466 0 .784-.465 1.22-.492.15-.086.353-.072.514-.136.385.013.681-.318 1.049-.413.127.011.256.011.386 0-.192-.279-.378-.545-.579-.813m-4.958-4.47c-.357-.053-.662.037-.969.163.2.243.562.646.981.975.251.203.469.355.653.467.183.093.094.291-.052.201-.132-.088-.382-.254-.569-.406-.481-.391-.92-.888-1.159-1.174-.352.156-.7.348-1.093.393.187.143.379.295.505.385.333.23 1.031.67 1.052.703.033.034.013.071-.021.099-.056.05-.795-.399-1.151-.662-.185-.131-.431-.335-.642-.525h-.033c-.288.137-.597.22-.919.279-.047.037-.099.067-.146.098.111.062.236.117.359.135.13.013.252.079.368.141l.06.025c.047.018.061.069.04.11-.027.039-.064.061-.111.037l-.061-.034c-.101-.051-.216-.108-.319-.124-.161-.014-.315-.093-.449-.178-.035-.025-.077-.041-.113-.071-.246.011-.506-.083-.74.111-.14-.01-.284.024-.442.059-.133.237-.359.286-.453.53.096.014.171.029.208.029.629.044 1.32.152 1.93.293.011.018.003.055 0 .081-.35.013-.671-.076-1.009-.136-.332-.062-.701-.008-1.031-.08-.029-.004-.09-.017-.167-.035-.099.129-.142.248-.348.327-.396.246-.686.219-.897.773-.11.049-.319.233-.417.325.14-.007.274 0 .417-.03.152-.025.296-.103.448-.136.32-.066.659-.08.967-.196.943-.19 1.939-.031 2.883-.225.341.12.702 0 1.082.062-.425-.207-.917-.356-1.411-.421-.07-.13-.273-.124-.383-.249.063-.027.17-.039.17-.039s.472.324.775.217c.194.117.475.071.659.23.535.089.86.507 1.387.659.313.22.817.181 1.191.326.641.125 1.389.235 1.931.553.394-.108.652.207 1.057.129.265.035.53.06.796.088-1.311-1.712-2.951-3.169-4.814-4.282m-7.522 3.65c-.15-.016-.264.053-.343.154l.113.005c.722.223.618.108 1.167.279.136.044.578.122.699.161.121.033.775.103.898.14.122.037.492.286.608.349.128.064.144.124.212.142.06.018.255-.027.455-.175.249-.148.636.012.823-.249.349-.067.631-.014.939-.128.484.016.912-.143 1.334-.152.239-.263.663-.146.974-.18.368-.083.772-.166 1.161-.122-.071-.078-.229-.078-.348-.108-.492-.169-1.041-.263-1.559-.399-.354-.458-.952-.398-1.483-.458-.106.004-.214.007-.323.007.052.022.097.048.101.073.005.042-.029.093-.063.097-.091.014-.161-.027-.203-.055l-.042-.011-.101-.072c-.01-.005-.023-.014-.026-.023-.142.005-.299.009-.432.011l.009.016.032.012c.065.041.183.095.169.207-.012.038-.04.056-.079.063-.046 0-.349-.214-.401-.282-.095.008-.18.008-.272.012l-.155.011c-.061.005-.172.014-.257.019.057.037.126.057.168.053.046-.013.089.021.099.06.007.048-.018.09-.063.097-.123.023-.264-.053-.355-.104-.056-.032-.117-.053-.192-.062-.124.013-.358.048-.489.072l-.313.057c.237.06.447.168.686.249.122.041.252.068.371.105.079.024.463.139.482.217.005.041-.016.083-.048.092-.125.033-.296-.104-.406-.143-.163-.053-.329-.071-.484-.129-.231-.085-.438-.207-.687-.253-.202-.034-.399-.028-.607-.021l-.156.03c-.16.032-.328.06-.328.06.236 0 .44.184.671.242.251.064.509.071.769.118.16.031.325.113.479.168.023.015.009 0 .066.069.059.064-.043.112-.091.094-.261-.074-.492-.17-.768-.205-.292-.037-.607-.064-.866-.212-.184-.111-.496-.175-.713-.191l-.15.027c-.171.028-.385.056-.582.068-.034.034-.07.064-.1.098m-2.777.671c-.032.011-.064.021-.099.031.041.052.067.111.094.166l.014.021c.018.047.001.095-.041.113-.036.021-.087.005-.104-.036l-.014-.024c-.046-.096-.079-.159-.142-.189-.157.026-.302.033-.403.039.107.091.204.185.311.267.119.135-.065.171-.158.088-.138-.135-.275-.258-.437-.355-.018 0-.036-.006-.054-.006h-.266c-.094.006-.187.032-.278.041l-.204.047c-.041.004-.075 0-.119.004.074.029.145.05.214.094.074.042.145.104.212.154.141.086.31.183.472.206.136.011.265.078.376.136l.058.036c.038.016.06.067.036.107-.018.036-.062.053-.102.033l-.07-.027c-.1-.055-.213-.11-.316-.127-.162-.022-.313-.103-.454-.181-.133-.079-.262-.194-.416-.254-.074-.029-.141-.06-.211-.092-.007-.002-.017-.009-.03-.019-.021.014-.045.028-.075.04l-.214.062c-.018.009-.037.021-.064.032-.079.03-.162.053-.252.063.345.135.696.265 1.045.391.217.085.435.165.647.253.116.048.386.228.512.201.046-.014.091.018.099.06.005.048-.016.084-.061.099-.158.034-.378-.115-.512-.167-.201-.084-.406-.156-.604-.232-.311-.113-.623-.214-.924-.34-.093-.033-.425-.121-.563-.231l-.152.028c-.01.009-.026.014-.042.022-.095.033-.166.023-.261.039-.086.012-.169.054-.253.079-.061.009-.123.03-.18.044.673.108 1.434.431 1.942.58.541.155.809.378 1.356.451.254.04.468.127.86.256l-.008-.495c-.038-1.271-.165-1.508-.165-1.508m-3.742 1.669l-.063-.018c-.023-.012-.025-.039-.041-.051-.049-.053-.717-.525-.775-.566-.022-.024-.042-.074-.045-.074-.044.013-.092.033-.128.044l-.103.051v-.01c-.08.026-.155.049-.224.085l-.015.001v.011l.084.076s.027.014.03.014c.017.009.45.407.45.428l.001.018c.005 0 .005.003.005.01 0 .013-.014.027-.031.041-.024.018-.046.009-.069 0l-.447-.407-.1-.081-.015-.023c-.02-.028-.033-.042-.046-.067-.121.011-.181.033-.295.087l-.098.038c-.045.025-.083.054-.12.073h-.004c.285.239.876.758.894.857.007.034-.014.069-.049.076-.067.007-.848-.698-1.044-.933h-.031c-.091.03-.167.088-.246.129l-.151.06c-.049.005-.103.005-.162-.012l-.068.038c.181.244.931.686 1.085.796.026.016.042.046.038.095-.025.025-.043.037-.074.02-.195-.126-.921-.607-1.151-.864l-.044.017-.24.136c-.009.044-.033.094-.064.119l-.085.088c-.051.039-.108.074-.168.115-.037.03-.086.051-.133.071h.03c.17.116.37.159.55.236.076.036.895.368.971.354.029-.011.063.003.07.035.006.039-.007.073-.041.081-.119.033-.326-.102-.422-.158-.134-.071-.717-.214-.855-.269-.101-.043-.191-.117-.295-.147-.056-.014-.234-.002-.265-.046-.113.046-.2.115-.2.248.293.275.804.086 1.097.362l.239.096s.344.063.382.082c.04.022.202.031.319.078.117.052.409.059.466.069l.254.053c.695.02 1.359-.028 1.953-.228.166-.208 1.609-.93 2.277-1.145-.285-.104-.575-.189-.891-.224-.496-.039-.893-.543-2.241-.647-.111.033-.231.039-.345.017.024.03.673.511.69.534.013.002.02.005.02.005.131.096-.045.115-.021.126m3.314-2.676c-.237-.08-.465-.193-.691-.331-.143-.238-.391-.392-.488-.627-.118.025-.2.06-.24.088-.193.039-1.174.248-1.381.237-.5.057-1.026.067-1.473.31-.258-.024-.471.095-.702.146.115.129.378.486.383.543.007.046-.021.079-.061.086-.043.007-.084-.014-.099-.056-.007-.023-.303-.426-.338-.465-.361.295-.813.295-1.239.389-.01.024-.031.046-.047.053.156.16.437.493.45.553.005.042-.026.076-.064.088-.043.005-.086-.019-.102-.056-.009-.029-.425-.506-.444-.52-.001 0-.004-.005-.007-.005-.007 0-.016 0-.025.005-.277.143-.663.313-.954.083-.129-.031-.262-.048-.405-.065.215.245.604.763.619.822.007.042-.027.072-.062.083-.041.01-.085-.014-.095-.053-.013-.028-.621-.81-.644-.829-.016-.012-.023-.027-.033-.041-.548-.042-1.12.013-1.632.099-.016-.004-.028-.004-.038-.008.234.217 1.214 1.123 1.259 1.194.02.044.004.071-.038.092-.122.083-1.224-1.064-1.398-1.266-.128.066-.222.223-.382.195-.258.171-.649.025-1.005-.09-.076.09-.15.175-.221.269.163.129.352.254.518.363.326.202 1.757.723 1.819 1.178.004.054-.024.086-.07.09-.043.014-.086-.021-.092-.067-.043-.318-1.267-.797-1.497-.911-.262-.15-.541-.339-.769-.524-.159.212-.315.425-.466.636.01.014.035.028.066.058.143.122.485.345.539.361.265.131 1.307.242 1.349.63.004.052-.03.087-.07.091-.048.009-.09-.025-.093-.069-.03-.295-1.094-.414-1.277-.511-.207-.102-.401-.293-.59-.429l-.01-.004c-.168.247-.319.499-.479.753l.048.039c.498.192.996.357 1.479.564.13.053.055.111.011.118-.171.016-1.394-.495-1.617-.592-.131.226-.258.453-.379.689.149.014.263.05.514.271.462.009.828.246 1.254.353.356.368.889.05 1.336.075.724-.149 1.308-.598 2.012-.789 1.013-.148 1.528-1.2 2.595-1.218.388-.016.922-.41 1.334-.39l.277-.127c.064-.022.107-.073.175-.078h.101c.068 0 .102-.02.163-.032.078-.014.155.011.224-.004.119-.03.207-.122.353-.123.191-.004.379-.077.566-.114.07-.017.16-.031.217-.049.052-.019.071-.06.133-.074.049-.012.114.003.166-.007.054-.013.187-.042.243-.066.042-.007.07-.033.086-.065.055-.023.106-.028.17-.049.063-.022.103-.061.171-.078.076-.023.179-.009.265-.009.066 0 .144-.002.216 0 .094 0 .133-.037.217-.039.08-.005.147.007.226.012.105.013.298-.091.53-.132-.024-.281.003-.54-.367-.654m-1.474-1.504c-.387-.301-.952-.258-1.338-.598-.571-.014-1.073-.247-1.682-.208-.4-.332-.92-.138-1.349-.455-.423.07-.885.061-1.224-.191l-.326.008c-.258.169-.516.349-.771.535.059.044.121.103.18.149.145.122.295.247.451.357.198.141.402.274.612.399.104.064.59.221.59.354 0 .007 0 .01-.007.019-.014.041-.038.065-.078.051-.184-.063-.372-.129-.549-.212-.191-.084-.303-.212-.462-.344-.285-.23-.588-.44-.869-.674-.412.302-.798.622-1.183.963.025.016.053.033.092.055.106.083.233.119.354.168.096.044.512.247.532.35.007.036-.012.08-.052.087-.137.046-.384-.202-.516-.26-.191-.083-.347-.193-.52-.299-.335.306-.664.631-.977.967.013.007.034.016.053.037.132.099.396.299.22.313-.055.004-.322-.161-.391-.224-.168.189-.336.383-.502.577.255.113.534.205.729.087.376-.095.694-.198 1.105-.152.188-.148.49.018.699-.092.829-.375 1.721.483 2.455-.191.33.126.509-.219.82-.189.292-.233.629-.429.997-.353.703-.271 1.492-.4 2.246-.423.119-.053.523-.14.926-.222 0-.029-.027-.062-.017-.089-.071-.15-.147-.221-.248-.3m3.44 30.312c-9.617 0-17.41-7.79-17.41-17.404 0-9.603 7.793-17.401 17.41-17.401 9.597 0 17.394 7.798 17.394 17.401 0 9.614-7.797 17.404-17.394 17.404"/>
    <path fill="#8c1515" d="M63.0073 120.049c-13.242 0-23.962 10.725-23.962 23.949 0 13.231 10.72 23.953 23.962 23.953 13.215 0 23.942-10.722 23.942-23.953 0-13.224-10.727-23.949-23.942-23.949m0 48.308c-13.463 0-24.37-10.905-24.37-24.359 0-13.45 10.907-24.357 24.37-24.357 13.447 0 24.342 10.907 24.342 24.357 0 13.454-10.895 24.359-24.342 24.359m.9137.9722l-.9.548-.898-.548.898-.55.9.55zm-3.7744-.1397l-.973.406-.804-.677.969-.402.808.673z"/>
    <path fill="#8c1515" d="M56.434 168.4878l-1.018.255-.702-.789 1.02-.254.7.788zm-3.5632-1.2478l-1.045.103-.576-.888 1.052-.097.569.882zm-3.3405-1.764l-1.047-.053-.438-.965 1.052.06.433.958zm-3.0373-2.241l-1.029-.216-.293-1.012 1.036.214.286 1.014zm-2.6717-2.6725l-.988-.362-.131-1.05.992.367.127 1.045zm-2.264-3.0153l-.919-.516.019-1.045.924.504-.024 1.057zm-1.765-3.3494l-.837-.638.182-1.036.833.638-.178 1.036zm-1.2557-3.5598l-.733-.755.335-1 .734.755-.336 1zm-.7282-3.7593l-.606-.854.472-.938.613.855-.479.937zm-.1414-3.8403l-.476-.937.609-.861.481.937-.614.861zm.4242-3.754l-.334-1 .734-.757.335 1.002-.735.755zm.9783-3.6517l-.178-1.036.835-.64.176 1.036-.833.64zm1.5075-3.459l-.024-1.055.926-.506.021 1.054-.923.507zm2.0106-3.2007l.134-1.045.988-.353-.136 1.034-.986.364zm2.4604-2.8617l.288-1.011 1.032-.214-.288 1.009-1.032.216zm2.8668-2.478l.435-.952 1.05-.059-.44.956-1.045.055zm3.1797-2.0183l.575-.884 1.05.104-.573.881-1.052-.101zm3.4607-1.522l.696-.795 1.028.263-.7.783-1.024-.251zm3.6533-1.0003l.813-.668.97.403-.811.675-.972-.41zm3.817-.4154l.902-.552.901.552-.901.536-.902-.536zm3.8203.1327l.974-.4.801.671-.973.408-.802-.679zm3.7055.705l1.023-.26.701.788-1.025.255-.699-.783zm3.573 1.2497l1.047-.104.576.873-1.053.102-.57-.871zm3.344 1.755l1.044.058.436.956-1.057-.056-.423-.958zm3.0367 2.2395l1.022.217.296 1.008-1.039-.209-.279-1.016zm2.674 2.6813l.979.361.133 1.046-.981-.366-.131-1.041zm2.2624 3.0135l.92.507-.024 1.055-.923-.501.027-1.061zm1.7622 3.344l.834.643-.18 1.04-.834-.647.18-1.036zm1.2522 3.574l.734.753-.341.999-.731-.757.338-.995zm.7292 3.7452l.605.861-.471.933-.613-.85.479-.944zm.1396 3.8508l.476.935-.601.859-.484-.938.609-.856zm-.4226 3.7506l.339 1-.737.755-.334-1.002.732-.753zm-.9755 3.65l.177 1.034-.831.643-.185-1.041.839-.636zm-1.5095 3.4624l.023 1.053-.923.503-.015-1.056.915-.5zm-2.0042 3.1956l-.132 1.047-.994.358.136-1.041.99-.364zm-2.4656 2.8614l-.29 1.013-1.036.212.29-1.011 1.036-.214zm-2.8695 2.4745l-.426.96-1.054.053.429-.955 1.051-.058zm-3.1833 2.0185l-.574.885-1.044-.1.569-.886 1.049.101zm-3.466 1.529l-.692.786-1.027-.254.702-.788 1.017.256zm-3.648.9914l-.812.675-.964-.404.81-.674.966.403zm-1.9824.288l-.857.612-.937-.476.859-.615.935.479zm-3.7726.1398l-.934.479-.857-.615.934-.472.857.608zm-3.748-.4225l-.999.329-.758-.732.996-.329.761.732zm-3.6514-.979l-1.036.18-.634-.836 1.037-.182.633.838zm-3.4573-1.5097l-1.051.023-.51-.926 1.052-.02.509.923zm-3.1965-2.0112l-1.047-.133-.361-.989 1.046.134.362.988zm-2.8597-2.4638l-1.019-.286-.207-1.031 1.009.283.217 1.034zm-2.4895-2.8422l-.959-.438-.05-1.045.955.43.054 1.053zm-2.0097-3.2062l-.88-.569.101-1.05.883.574-.104 1.045zm-1.5163-3.4554l-.785-.702.256-1.018.789.698-.26 1.022zm-1.0014-3.694l-.676-.809.409-.969.672.809-.405.969zm-.4304-3.8266l-.546-.897.546-.905.55.907-.55.895zm.1378-3.773l-.401-.972.673-.803.408.971-.68.804zm.707-3.7048l-.256-1.018.79-.702.256 1.022-.79.698zm1.248-3.5685l-.097-1.047.878-.576.104 1.047-.885.576zm1.7674-3.344l.056-1.043.959-.442-.057 1.059-.958.426zm2.242-3.033l.211-1.032 1.012-.294-.212 1.034-1.011.292zm2.6698-2.6866l.362-.983 1.048-.136-.364.988-1.046.131zm3.0278-2.2482l.506-.924 1.053.026-.506.923-1.053-.025zm3.336-1.78l.636-.831 1.038.18-.637.833-1.037-.182zm3.5703-1.262l.754-.728 1.003.338-.761.726-.996-.336zm3.769-.7085l.858-.608.94.479-.857.608-.941-.479zm3.824-.1327l.938-.482.855.604-.936.481-.857-.603zm3.7507.4154l.998-.336.755.737-1.001.332-.752-.733zm3.6454.9756l1.043-.175.637.838-1.033.176-.647-.839zm3.4712 1.513l1.045-.016.509.911-1.058.031-.496-.926zm3.1914 2.006l1.042.136.367.986-1.05-.129-.359-.993zm2.8632 2.464l1.017.295.206 1.031-1.014-.283-.209-1.043zm2.4886 2.849l.954.437.06 1.048-.96-.433-.054-1.052zm2.007 3.201l.875.576-.098 1.045-.883-.569.106-1.052zm1.5146 3.4643l.79.7-.26 1.022-.792-.697.262-1.025zm.9996 3.6922l.675.806-.403.972-.673-.811.401-.967zm.4286 3.8232l.539.903-.539.896-.543-.896.543-.903zm-.1396 3.773l.403.967-.674.809-.399-.967.67-.809zm-.7 3.71l.259 1.022-.789.696-.256-1.016.786-.702zm-1.2496 3.563l.103 1.05-.889.573-.102-1.05.888-.573zm-1.764 3.339l-.058 1.048-.956.44.052-1.053.962-.435zm-2.2438 3.0382l-.214 1.028-1.013.289.218-1.027 1.009-.29zm-2.6716 2.6812l-.364.986-1.052.135.369-.983 1.047-.138zm-3.0258 2.25l-.511.926-1.048-.025.503-.919 1.056.018zm-3.3352 1.7816l-.641.836-1.042-.179.645-.841 1.038.184zm-3.579 1.2638l-.753.732-.997-.334.755-.734.995.336z"/>
    <path fill="#8c1515" d="M36.7072 143.9982c0 14.498 11.793 26.294 26.3 26.294 14.486 0 26.288-11.796 26.288-26.294 0-14.491-11.802-26.296-26.288-26.296-14.507 0-26.3 11.805-26.3 26.296m-.707 0c0-14.885 12.111-26.998 27.007-26.998 14.877 0 26.993 12.113 26.993 26.998 0 14.889-12.116 26.998-26.993 26.998-14.896 0-27.007-12.109-27.007-26.998"/>
    <path fill="#8c1515" d="M43.657 138.3793c.164.041.182.162.169.279-.036.163-.077.324-.144.49-.067.146-.199.254-.322.298-.101.037-.226.037-.322.037l-.03.105c.246.023.488.037.727.051.096-.323.169-.657.258-.983.093-.323.193-.648.284-.977l-.12-.041-.016.062c-.034.126-.098.271-.351.2l-2.077-.578c-.21-.06-.19-.209-.155-.343l.017-.044-.127-.036c-.044.195-.083.398-.14.598-.053.189-.12.366-.172.553l.119.034.023-.091c.041-.139.083-.248.295-.192l2.084.578zm-.0884 1.4177l-.011.057c-.024.136-.069.277-.284.243l-2.169-.335c-.219-.036-.217-.182-.192-.324l.008-.053-.128-.019c-.034.233-.082.631-.134.95-.046.324-.123.72-.163.978.178.02.448.065.628.106l.055-.106c-.263-.064-.475-.141-.415-.548l.084-.523 1.091.166-.076.455c-.03.229-.184.259-.415.245l-.014.113c.164.019.323.039.488.062.159.03.314.058.469.092l.047-.115c-.248-.064-.408-.101-.367-.364l.074-.458.969.149c.265.044.231.27.193.51-.07.463-.138.658-.627.699l.012.114c.229-.017.453-.029.684-.029.033-.245.085-.69.137-1.031.061-.346.141-.794.181-1.009l-.125-.025zm-.668 3.0647c.169.007.213.122.226.244.007.162 0 .334-.032.513-.025.158-.135.296-.242.362-.094.055-.214.078-.309.104l-.001.107c.239-.026.477-.072.717-.111.013-.339.013-.677.026-1.014.015-.341.046-.675.058-1.02l-.125-.004-.003.059c-.002.129-.034.283-.292.269l-2.156-.089c-.218-.012-.232-.161-.23-.3l.007-.053-.125-.004c-.011.207 0 .407-.011.612-.008.198-.033.385-.041.574l.129.013v-.091c.005-.155.014-.265.239-.256l2.165.085zm-.8662 2.3096l-1.151.452v.006l1.213.26-.062-.718zm2.027 4.38c-.127.009-.274.037-.417.071l-1.861.425c-.487.115-.482.298-.445.456l.018.055-.126.032c-.032-.157-.053-.313-.091-.468-.043-.175-.095-.347-.136-.525l.12-.03.022.086c.021.11.124.32.458.239l1.534-.354.007-.008-2.434-1.208c-.023-.118-.033-.228-.064-.337-.033-.144-.079-.288-.111-.435l.121-.025.015.045c.037.176.214.316.443.259l1.768-.403c.282-.065.449-.164.453-.357 0-.021-.006-.159-.006-.159-.01-.125-.068-.203-.192-.239-.129-.04-.285-.074-.435-.107l-2.247-.534c-.036-.007-.072-.018-.107-.025-.012-.007-.012-.014-.014-.028 0-.012.002-.018.005-.032.044-.074.116-.235.152-.364.154-.035.356-.122.509-.184l1.869-.77c.169-.075.259-.207.247-.356l-.003-.023.13-.009c0 .137.002.273.014.413.012.157.032.31.053.47l-.129.006v-.045c-.012-.124-.047-.283-.171-.274-.075.007-.181.06-.319.113l-.425.155.071.879.492.11c.14.029.258.056.313.051.108-.009.11-.161.103-.25l-.002-.04.122-.011c.011.196.013.391.029.58.014.168.058.482.058.482.023.177.043.354.081.524.04.164.093.321.129.484l-.123.03-.017-.065c-.064-.292-.2-.328-.555-.25l-1.732.402 2.793 1.401.033.147zm-.0686 1.297c.271-.104.352-.005.454.253.244.609-.188 1.145-.79 1.384-1.027.41-1.481.028-1.709-.545-.03-.084-.051-.171-.079-.253l2.124-.839zm.023-.905l.022.049c.05.13.084.273-.121.354l-2.048.808c-.204.084-.275-.048-.325-.179l-.021-.047-.116.045c.041.11.151.34.245.57.085.233.146.427.211.586.352.882 1.105 1.211 1.921.891.78-.313 1.178-1.164.838-1.875-.067-.161-.175-.406-.269-.65-.1-.244-.185-.508-.218-.598l-.119.046zm.456 5.9654c-.248.115-.555.111-.695-.115-.154-.261-.077-.505.202-.679.598-.366 1.023.737 1.887.213.495-.301.522-.835.266-1.261-.113-.178-.294-.316-.483-.424-.189.095-.383.181-.582.276l.041.106c.326-.145.689-.149.882.164.134.225.094.502-.165.658-.635.385-1.024-.705-1.891-.179-.47.285-.558.753-.301 1.179.061.094.266.348.344.447.165-.104.35-.198.536-.284l-.041-.101zm.2067 1.057c-.173-.228-.124-.281.086-.516l-.07-.092c-.082.089-.166.171-.253.255-.087.086-.178.157-.268.234l.054.075c.117-.053.174.032.24.11l1.217 1.581c.061.083.118.161.019.243l.073.065c.08-.08.16-.165.243-.239.082-.076.177-.145.266-.216l-.036-.121c-.126.086-.334.222-.49.017l-.392-.503 1.775-1.36c.252-.2.365-.111.48.034l.045.058.099-.077c-.094-.123-.27-.319-.398-.49-.139-.182-.292-.41-.386-.527l-.096.082.045.054c.127.17.173.264-.086.469l-1.78 1.371-.387-.507zm2.8068 1.156l-.608 1.082.003.007 1.104-.566-.499-.523zm4.355 2.084c-.092.094-.184.203-.277.32l-1.176 1.506c-.311.396-.185.531-.056.634l.048.03-.08.105c-.125-.098-.24-.211-.368-.308-.137-.11-.297-.211-.437-.324l.079-.097.063.055c.097.071.301.166.515-.106l.971-1.239v-.012l-2.651.599c-.095-.071-.173-.152-.261-.223-.12-.093-.248-.169-.363-.265l.076-.099.039.035c.14.106.368.105.511-.081l1.087-1.395c.205-.267.274-.486.064-.648l-.039-.033c-.091-.093-.178-.112-.297-.07-.129.053-.272.127-.412.195l-2.077 1.004c-.033.016-.069.035-.097.049-.016.004-.025-.005-.03-.012-.007-.005-.01-.016-.014-.027-.011-.084-.064-.256-.111-.378.097-.125.198-.32.274-.463l.972-1.803c.094-.162.078-.322-.02-.435l-.014-.014.094-.088c.084.111.17.221.264.325.101.115.213.225.319.343l-.09.078-.028-.03c-.086-.097-.21-.205-.303-.117-.056.046-.101.173-.18.3l-.229.389.61.639.448-.227c.129-.065.24-.118.278-.152.074-.079-.02-.191-.083-.261l-.029-.029.092-.092c.129.151.258.294.391.432.116.127.237.244.357.351.133.112.255.239.387.343.131.103.271.191.401.292l-.074.1-.053-.037c-.238-.181-.368-.129-.591.16l-1.065 1.364 3.054-.677.111.094zm.1574 2.0923l.463.276c.165.095.144.238.037.419l.099.058c.074-.134.14-.265.22-.392.087-.154.177-.292.275-.435l-.099-.06c-.122.203-.262.321-.475.198l-.416-.246.547-.922c.12-.204.273-.115.443-.013l.043.025.061-.11c-.155-.093-.389-.216-.573-.327-.18-.101-.374-.237-.506-.313l-.062.108.045.025c.122.072.232.166.125.353l-1.122 1.895c-.111.187-.254.129-.371.06l-.044-.024-.063.104c.2.122.557.309.835.475.28.17.616.385.845.52.08-.157.227-.396.333-.546l-.083-.094c-.17.24-.325.382-.589.23l-.532-.317.564-.947zm3.2018-.0706c.687.3.52 1.011.282 1.571-.246.564-.823 1.128-1.409.87-.619-.267-.546-.947-.323-1.465.3-.686.875-1.224 1.45-.976m-1.195 2.618c.757.325 1.58.074 1.934-.746.386-.889.056-1.732-.703-2.056-.754-.325-1.566-.012-1.923.813-.346.801-.044 1.669.692 1.989m6.341-1.1634c-.276-.037-.401-.014-.436.281l-.287 2.305c.079.012.17.039.26.049.61.074 1.161-.176 1.301-1.276.079-.647-.185-1.276-.838-1.359m-3.167.785l-.182-.046-.321 1.209c.052.018.088.041.202.074.337.088.611-.087.708-.444.132-.482-.029-.689-.407-.793m4.532.715c-.108.874-.764 1.418-1.708 1.305-.166-.023-.369-.065-.617-.097-.247-.028-.501-.042-.616-.059l.015-.121.055.003c.14.018.285.014.316-.202l.273-2.228c.028-.214-.112-.26-.253-.276l-.06-.011h-.005c-.186-.028-.274.004-.426.145l-.932.925c.26.205.422.487.329.852-.161.577-.617.599-1.085.473-.193-.056-.374-.12-.589-.178-.238-.064-.47-.108-.594-.141l.043-.128.066.027c.109.028.262.054.35-.242l.565-2.113c.038-.152-.074-.256-.207-.295l-.068-.014.038-.124c.185.052.35.117.529.165.219.056.435.095.651.157l-.034.124-.067-.022c-.169-.044-.312-.07-.392.241l-.249.928.245.062c.368-.4.75-.827 1.144-1.155.117.023.233.075.345.11.117.03.237.042.345.078.1.009.39.071.65.104.264.032.53.053.702.067.784.048 1.341.811 1.241 1.64m1.887 1.162c.007.224-.163.228-.323.232h-.055l.005.127c.168-.004.403-.03.595-.035.193-.01.435 0 .6-.006l-.001-.125-.059.002c-.124.005-.271-.031-.274-.214l-.089-2.526c-.014-.492-.35-1.02-.841-.999-.226.007-.453.098-.443.373.007.113.094.226.245.223.312-.007.12-.408.357-.419.134-.003.168.209.168.316l.115 3.051zm1.49-.1804c.042.3-.099.327-.255.347l-.045.005.017.125c.166-.023.366-.069.607-.102.229-.032.421-.045.578-.064l-.018-.124-.044.008c-.154.021-.31.035-.35-.264l-.205-1.458c-.075-.527.053-.923.599-.999.507-.07.777.248.858.812l.2 1.431c.043.302-.099.329-.232.343l-.075.009.021.129c.148-.021.308-.06.453-.083.153-.018.302-.021.448-.046l-.018-.127-.077.015c-.11.013-.246.029-.289-.27l-.19-1.348c-.14-.935-.631-1.139-1.2-1.063-.74.103-1.099.453-.999 1.199l.216 1.525zm4.667-2.7308l.013.004.446 1.505c.095.334-.102.444-.212.481l-.076.019.03.124c.169-.058.336-.124.516-.169.154-.046.311-.071.459-.121l-.03-.121-.062.017c-.153.046-.337.06-.482-.413l-.539-1.835c-.047-.138-.081-.285-.108-.412l-.127.041-1.231 2.877-.487-1.661c-.103-.35-.076-.492.215-.574l.056-.017-.035-.121c-.158.046-.314.109-.477.153-.16.05-.334.087-.502.133l.036.12.049-.014c.257-.071.391.09.483.413l.5 1.697c.065.225-.062.414-.228.464l-.049.015.033.119c.147-.043.289-.101.419-.144.116-.028.224-.045.336-.079l1.054-2.501zm.3492-.8908l.048-.019c.129-.055.276-.092.358.107l.861 2.081c.085.199-.043.275-.174.332l-.046.019.043.117c.138-.058.351-.166.523-.24.184-.073.402-.144.572-.212l-.05-.12-.047.026c-.128.049-.273.088-.352-.115l-.865-2.077c-.085-.201.03-.277.168-.332l.051-.018-.051-.116c-.166.068-.38.177-.558.249-.173.07-.395.143-.533.203l.052.115zm2.4267-1.1347c.665-.359 1.122.212 1.409.753.296.532.385 1.334-.181 1.638-.592.324-1.085-.154-1.353-.65-.362-.659-.421-1.439.125-1.741m1.326 2.552c.723-.392 1.035-1.196.606-1.981-.461-.847-1.33-1.107-2.057-.711-.721.389-.978 1.218-.551 2.015.428.762 1.298 1.062 2.002.677m1.395-2.6033l.15-.113c.316-.23.575-.223.869.177.219.298.195.62-.083.829-.099.063-.147.086-.187.113l-.749-1.006zm.183 1.078c.184.25.062.345-.034.422l-.054.037.076.105c.096-.074.276-.232.468-.373.187-.136.346-.233.513-.357.39-.286.656-.657.3-1.136-.225-.306-.548-.357-.87-.276l-.104-1.259c-.021-.207.017-.295.147-.426l-.069-.1c-.109.076-.193.162-.297.237-.102.07-.209.13-.304.203.013.517.071 1.032.157 1.571l-.203.152-.532-.721c-.196-.261-.086-.355.053-.465l.058-.035-.079-.101c-.172.129-.343.278-.52.406-.152.11-.308.205-.464.32l.082.101.054-.042c.112-.087.261-.108.355.017l1.267 1.72zm3.185-2.5785c.219.207.13.316.022.428l-.027.032.091.09c.108-.126.239-.29.404-.465.158-.17.302-.304.406-.414l-.094-.086-.033.035c-.101.113-.21.228-.432.018l-1.068-.983c-.386-.368-.536-.746-.163-1.151.346-.376.755-.302 1.174.083l1.049.969c.228.205.133.322.042.416l-.055.057.093.086c.106-.115.201-.241.31-.354.103-.113.211-.208.319-.32l-.097-.088-.051.062c-.076.074-.174.18-.4-.02l-.987-.913c-.697-.647-1.21-.492-1.599-.072-.504.548-.567 1.052-.012 1.565l1.108 1.025zm1.9512-5.1045l.006-.002 1.305.889c.281.195.202.405.134.499l-.046.071.103.072c.107-.15.191-.306.292-.456.092-.129.193-.25.283-.384l-.106-.07-.035.047c-.086.136-.221.266-.632-.017l-1.583-1.075c-.119-.081-.239-.171-.337-.258l-.084.12.878 3.001-1.431-.974c-.307-.205-.377-.326-.205-.576l.04-.054-.11-.071c-.091.138-.171.286-.265.424-.1.142-.213.277-.309.426l.099.069.033-.044c.149-.223.356-.18.638.012l1.465.99c.186.136.21.368.111.511l-.025.037.096.072c.09-.117.162-.251.245-.378.062-.09.138-.178.211-.272l-.771-2.609zm-.2898-.9173l.025-.049c.066-.121.151-.246.351-.142l1.943 1.039c.194.103.142.244.074.365l-.027.042.112.065c.067-.132.171-.348.256-.512.084-.17.209-.366.295-.527l-.105-.062-.03.05c-.068.121-.152.244-.342.141l-1.947-1.039c-.19-.101-.138-.239-.074-.362l.026-.048-.111-.062c-.089.164-.182.378-.278.549-.092.165-.208.359-.276.492l.108.06zm3.5092-1.0657l-.03.085c-.058.131-.141.159-.187.138-.024-.007-.077-.044-.116-.085l-1.471-1.324.004-.005 1.847.099c.139.008.206.033.232.045.116.045.088.158.04.282l-.03.06.12.046c.05-.124.087-.267.152-.419.046-.11.112-.217.152-.322l-.115-.049-.01.031c-.031.068-.07.131-.22.137-.061.008-1.712-.064-2.448-.098-.157-.008-.302-.003-.45-.012l-.054.129 2.059 1.914c.149.142.151.235.093.393l-.018.037.124.047c.075-.182.131-.374.21-.558.076-.173.186-.417.235-.527l-.119-.044zm-1.915-2.4144l.016-.051c.032-.133.095-.269.301-.209l2.125.585c.213.06.19.209.148.345l-.01.046.123.037c.059-.223.152-.622.236-.935.088-.313.216-.689.287-.946-.18-.042-.441-.122-.621-.18l-.065.103c.261.091.463.196.351.586l-.146.516-1.059-.293.126-.445c.064-.22.214-.228.433-.193l.037-.115c-.166-.032-.32-.074-.478-.12-.155-.039-.305-.087-.46-.136l-.057.102c.24.089.39.147.324.405l-.123.451-.943-.267c-.266-.072-.206-.288-.14-.525.129-.447.208-.637.699-.62v-.117c-.224-.005-.45-.025-.676-.048-.065.239-.165.67-.258 1.01-.09.332-.237.768-.294.984l.124.03zm2.1042-2.805l.027-.187c.057-.382.245-.568.737-.495.369.056.577.307.525.652-.014.113-.035.161-.047.214l-1.242-.184zm.892.631c.309.044.297.198.275.32l-.007.067.122.02c.018-.124.035-.367.073-.598.03-.228.072-.408.102-.61.076-.484-.005-.931-.6-1.018-.372-.056-.632.14-.804.424l-.963-.811c-.164-.134-.201-.215-.197-.408l-.125-.02c-.013.129-.013.253-.04.377-.018.12-.052.24-.068.36.376.354.789.674 1.226.994l-.032.251-.892-.133c-.32-.046-.31-.187-.289-.36l.017-.071-.127-.018c-.035.221-.049.444-.083.66-.026.185-.07.36-.094.553l.123.018.007-.068c.022-.143.115-.261.267-.24l2.109.311zm.2056-4.0546c.269.055.533.219.52.488-.013.304-.215.464-.546.458-.694-.023-.445-1.175-1.45-1.216-.579-.016-.899.418-.915.912-.007.215.069.425.164.616.222.031.43.06.641.089l.03-.106c-.359-.061-.661-.251-.649-.619.009-.267.2-.474.494-.461.743.026.471 1.15 1.482 1.186.544.018.882-.327.899-.828.008-.104-.033-.438-.042-.55-.201-.013-.398-.037-.602-.064l-.026.095zm-2.1828-.4185l-.002-.049c-.003-.14.006-.287.231-.299l2.197-.089c.217-.006.24.135.243.273v.055l.137-.006c-.006-.152-.034-.389-.043-.569-.007-.194 0-.426-.01-.608l-.125.002.006.056c.002.14-.013.29-.232.299l-2.197.087c-.216.003-.245-.133-.249-.274l-.006-.048h-.12c.01.189.031.417.044.604.005.2 0 .424.005.571l.121-.005zm2.4983-1.976c.036.288-.037.308-.333.408l.018.11c.119-.03.229-.06.347-.09.113-.034.23-.055.351-.069l-.014-.094c-.132-.014-.139-.109-.152-.214l-.275-1.974c-.013-.106-.022-.2.097-.224l-.025-.092c-.111.033-.219.06-.329.092-.108.024-.227.037-.339.051l-.032.122c.159-.013.41-.029.44.228l.092.627-2.216.306c-.32.048-.375-.082-.401-.269l-.009-.072-.124.017c.019.151.074.416.104.623.029.231.048.504.069.65l.124-.016-.011-.074c-.027-.21-.019-.322.309-.364l2.223-.31.086.628zM83.45 138.655l1.316.447c.206.067.33.103.374.283l.012.039.12-.039c-.053-.194-.12-.375-.171-.574-.055-.195-.087-.377-.131-.556l-.127.029.012.049c.028.108.028.2-.04.221-.047.011-.113-.021-.149-.033l-1.014-.331.599-.663c.1-.09.157-.162.237-.18.083-.032.141.134.15.18l.024.069.116-.03c-.034-.139-.091-.276-.124-.419-.034-.118-.049-.247-.083-.36l-.12.033c.033.129-.038.26-.108.341l-.879.98-.971.256c-.342.101-.39-.011-.448-.207l-.018-.073-.119.041c.057.216.133.435.179.596.045.184.092.42.144.631l.127-.032-.012-.069c-.066-.219-.027-.327.242-.397l.862-.232zm-23.1735-16.722c-.033-.232.125-.255.309-.281l.09-.012-.016-.124c-.212.03-.422.069-.638.103-.238.033-.468.051-.708.082l.028.123.078-.008c.169-.03.358-.047.39.177l.289 2.089c-.17-.051-.376-.131-.561-.193l-.046.135c.165.06.361.146.553.24.189.108.364.2.477.263l.11-.017-.355-2.577zm1.5783-.4065c.256-.012.431.177.445.447.017.41-.311.573-.578.766-.205-.119-.33-.361-.341-.623-.012-.325.17-.581.474-.59m.248 1.536c.187.125.314.366.332.601.007.297-.143.567-.418.581-.221.009-.425-.205-.429-.442-.023-.386.246-.576.515-.74m-.471-.265l-.048.039c-.242.19-.398.422-.38.784.038.614.532.796.86.776.366-.023.705-.263.684-.712-.012-.338-.289-.573-.562-.691.3-.161.554-.426.533-.82-.03-.514-.443-.819-.878-.801-.373.025-.801.258-.772.729.017.399.249.576.563.696m2.9025.235c-.086-.184-.309-.362-.548-.375-.447-.025-.682.348-.705.764-.035.555.391.953.875.981.586.037.931-.483.963-1.07.054-1.016-.86-1.818-1.693-2.002l-.065.111c.775.244 1.34.92 1.29 1.831-.018.312-.18.997-.583.973-.28-.015-.388-.264-.372-.54.023-.323.231-.712.546-.691.131.002.185.051.275.124l.017-.106zm2.259-.9422c.033-.233.187-.205.375-.18l.085.016.026-.122c-.219-.036-.432-.061-.646-.092-.23-.036-.455-.084-.69-.122l-.023.129.087.003c.171.034.348.064.319.288l-.332 2.084c-.143-.102-.318-.235-.477-.341l-.08.104c.137.11.304.253.453.389.153.159.304.299.383.396l.11.018.41-2.57zm13.2224 8.7207c0-.058.047-1.121.047-1.121s-.589.905-.611.948c-.051-.016-.995-.366-.995-.366s.629.818.66.852c-.025.046-.607.853-.607.853s.925-.365.968-.385c.033.039.663.861.663.861s-.098-1.004-.106-1.053c.053-.02 1.063-.363 1.063-.363s-1.025-.219-1.082-.226m-2.3437-2.561c-.005-.06-.134-1.112-.134-1.112s-.432.987-.447 1.031c-.057-.009-1.047-.202-1.047-.202s.758.707.79.737c-.019.046-.463.941-.463.941s.858-.51.896-.539l.792.747s-.262-.975-.278-1.032c.052-.021.996-.514.996-.514s-1.048-.057-1.105-.057m-2.722-2.158c-.016-.055-.318-1.073-.318-1.073s-.261 1.046-.274 1.092c-.053 0-1.06-.031-1.06-.031s.857.576.901.601c-.022.051-.311.996-.311.996s.767-.631.797-.67c.038.029.901.61.901.61s-.41-.928-.431-.973c.039-.033.893-.674.893-.674s-1.045.115-1.098.122m-29.0404 4.5547c-.004-.053-.044-1.11-.044-1.11s.582.909.609.948c.052-.02.996-.37.996-.37s-.628.825-.662.854c.03.046.606.848.606.848s-.922-.355-.967-.38c-.03.043-.662.859-.662.859s.102-1.004.106-1.057c-.054-.016-1.061-.352-1.061-.352s1.023-.226 1.079-.24m2.3464-2.5557c.005-.058.131-1.112.131-1.112s.427.988.453 1.031c.049-.005 1.043-.204 1.043-.204s-.756.713-.794.741c.024.044.465.933.465.933s-.855-.496-.895-.528c-.03.035-.792.742-.792.742s.26-.977.276-1.028c-.052-.023-.993-.52-.993-.52s1.051-.055 1.106-.055m2.7227-2.1547c.013-.053.314-1.073.314-1.073s.263 1.044.278 1.092c.051 0 1.058-.033 1.058-.033s-.861.581-.896.601c.01.047.31.998.31.998s-.768-.636-.805-.67c-.039.025-.902.608-.902.608s.416-.922.437-.966c-.046-.039-.891-.674-.891-.674s1.043.108 1.097.117"/>
    <path fill="#ffffff" d="M64.1835 142.0486c.017-.016.028-.033.045-.046-.017.017-.028.036-.045.046m-.3315-4.758l-.019.56c.004-.129.007-.449.019-.604v.044zm-.152-3.6126c.001.014.007.058.019.154-.019-.048-.027-.096-.019-.154m0-.009v.009-.009zm3.71 5.716c.164-.014.053.182.096.286-.117.114-.015.354-.216.379-.041-.207.065-.439.028-.665h.092zm.2395-.0388c.105.018.065.085.115.145-.01.058-.075.11-.149.092-.109-.05-.025-.198.034-.237m-.0592.6398l.086.027c.062.074.024.168-.027.24.081.252-.273.252-.209.486-.099.168-.276.226-.335.407-.088.061-.263.024-.234-.121.097-.206.217-.348.419-.482.016-.142.464-.302.3-.557m-.7485.935c-.035.133-.399.249-.358 0 .041-.138.184-.147.293-.182l.065.182zm-.2183.456v.09c-.06.094-.191.187-.352.14l-.024-.085c.107-.097.258-.18.376-.145m-.7662.2634l-.1-.119c.163-.054.295-.363.49-.314-.036.184-.269.341-.39.433m3.7497.4066c.084.104.04.286 0 .405-.108.085-.334.26-.375.06.117-.154.106-.529.375-.465m-.6478.318h.09v.066c-.034 0-.09-.017-.09-.066m-.0292-.2863c.085-.071.092-.159.157-.228.073.035.198.106.145.228.028.184-.302.154-.302 0m-.3517.3993c.056-.048.134-.145.206-.085.065.249-.109.548-.294.716-.202-.182.238-.355.088-.631m-1.6225.6753c-.149.205-.338.385-.601.336v-.085c.398-.138.129-.682.55-.682.152.079.088.297.051.431m.4842.145c-.051-.172-.154-.299-.122-.497.058-.104.188-.09.272-.139.244.072.011.291.087.447-.062.108-.103.205-.237.189"/>
    <path fill="#ffffff" d="M66.3036 143.924c.051-.147.119-.205.265-.249.273-.186.488-.469.596-.765.051.043.051.09.085.118-.092.189-.161.367-.232.558-.113.281-.438.402-.714.338m.2386-1.1595c-.295.2-.161-.217-.361-.313.05-.058.108-.087.174-.118.078.118.249.24.187.431m.563 2.0357l.144-.433c.081 0 .161-.014.191.06.014.168-.201.301-.335.373m1.558 3.8513c.121-.125.121-.353.296-.403.056.11-.063.23-.029.376-.008.133-.24.181-.267.027m-.8625.4895c.099-.131.25-.214.454-.251.014.037.087.058.087.109-.14.133-.338.241-.541.267v-.125zm-.6955.2316c.157-.046.349-.24.485-.168-.024.09-.084.156-.18.203-.161-.021-.342.074-.505.108l.2-.143zm-.8935.327l-.03-.184c.343-.177.398-.797.875-.684-.215.35-.44.762-.845.868m-.3924-.2634c.088-.142.012-.39.233-.401.119.048.159.106.159.231-.04.141-.268.4-.392.17m-.1713-.5815c.032-.049.083-.06.145-.06.051.025.011.085.026.118.038.147-.284.113-.171-.058m.0228.35c.072.048.117.122.086.203-.053.149-.148.352-.328.377-.205-.191.154-.303.088-.518.041-.046.092-.076.154-.062"/>
    <path fill="#ffffff" d="M65.1547 149.4362l-.021-.109c.221-.137.021-.448.295-.533.375.142-.074.329 0 .533-.022.118-.154.118-.274.109m-.3464.6998c-.217-.17.12-.33.15-.47l-.15-.088c0-.062-.029-.133.054-.17.055-.011.106 0 .146.06-.167.256.321.186.215.461-.106.154-.265.182-.415.207m-.3323 1.0377c-.117.035-.193.074-.306 0l.066-.06c.077-.059.215 0 .24.06m4.2207.0848c.087-.021.251-.06.325.033l-.425.439c-.052 0-.107-.014-.148-.06.084-.135.078-.303.248-.412m-.7837.5833c0-.111.098-.2.213-.2.129.112-.016.258.023.407-.262.141-.359.475-.686.464.088-.217.412-.383.45-.671m-.1123.0336c-.071.095-.21.304-.424.232-.161-.112.063-.161.086-.265.112-.076.276-.112.338.033m-1.704.3146c.085 0 .115-.172.228-.108.065-.028.119.025.097.085-.08.081-.302.191-.325.023"/>
    <path fill="#ffffff" d="M65.4287 153.116l-.022-.019.086-.1c.364.013.295-.459.666-.433.099-.281.422-.33.594-.579.226-.219-.099-.748.265-.811.11.194.05.468.062.701-.038.193-.426.326-.364.541.205.039.225-.168.426-.143.074.166-.124.291-.237.412-.524.083-.912.463-1.476.431m.242-.456c-.264-.06-.242.364-.477.193.081-.131.162-.253.213-.398.085-.143.248-.06.35 0 .047.122-.061.11-.086.205m-.986.6894c.086-.124.244-.108.324-.17.06-.026.109.036.1.084-.076.121-.329.275-.424.086m-1.019.845c-.009-.276.066-.53.118-.76.068.009.141-.011.173.058 0 .046.037.099-.02.124.045.034.02.141.124.106-.041-.24.162-.46.263-.606.127-.007.225-.092.336 0-.111.233-.247.452-.274.705-.215.18-.429.495-.72.373m3.7443.3746c.053.049.005.131.053.171-.039.154-.29.313-.383.204.21-.096.061-.352.33-.375m-.904.6416c-.047.154-.275.18-.453.207v-.101c.178 0 .272-.217.453-.106m0-.6186c.111.051.057.157.063.24-.102.174-.421.306-.538.052.162-.097.227-.35.475-.292m-1.162.7847l.027-.019c.112.07.3-.041.387.083-.087.141-.387.107-.414-.064m-.236-.5797c.073-.057.198-.117.299-.057v.266c-.051.105-.132.167-.273.139l-.026-.348zm-1.7455 1.428c.146-.111.191-.256.357-.269.205-.252.528-.374.732-.599.173-.136.224-.581.535-.474-.068.614-.751.905-1.23 1.133.108.267-.276.389-.394.209m2.395.4013v.238l-.175.029c.014-.113.014-.318.175-.267m-.3288.0937v.048c-.099.097-.123.286-.295.266v-.086c.109-.046.123-.322.295-.228m.129.4384c.039.117-.166.203-.252.311-.172.094-.312.274-.534.29-.013-.458.572-.279.786-.601m-.8977-.2934c.099.009.086.122.086.189-.038.073-.113.066-.19.066.028-.085-.046-.246.104-.255m-.1044.6044c0 .072.036.157-.025.201-.26.029-.207.411-.511.356v-.099c.293-.087.278-.386.536-.458m-5.2848-.9544v-.058l.022.017-.022.041zm.5338.4577c-.127-.071-.32-.145-.32-.311.01-.036.046-.036.085-.036.071.114.313.218.235.347m.0256.3465c-.261-.007-.476-.193-.538-.426h.127c.111.202.398.191.411.426m.851.5018l-.04.019c-.149-.109-.451 0-.512-.203.161.106.485-.04.552.184m-.3412-.7864c-.109.419.5.108.454.521-.187-.03-.417-.123-.604-.236.078-.152-.121-.255-.06-.371.101-.011.187.014.21.086m.989 1.011c-.089.148-.212-.009-.298-.078-.017-.064-.104-.127-.029-.184l.327.262zm.3633-.3746c0 .125.033.277-.149.256-.116-.063-.152-.238-.092-.371.124-.086.185.03.241.115m-2.6123-5.4475c.088 0 .088.099.126.145-.049.026-.097.026-.148 0 .009-.046-.026-.12.022-.145m.213.5445c-.038-.083-.124-.23.038-.286.111 0 .228.069.263.178.075.154.363.303.299.456-.35.209-.391-.205-.6-.348m.9605.5196l-.086.18c-.085-.014-.099-.108-.085-.18.058-.062.122-.025.171 0m-1.9247-2.6548h-.147c.025-.086.125-.029.147 0m-.6434-1.8382c.096-.037.25.025.299.142-.064.109-.179.09-.272.098.014-.107-.181-.145-.027-.24m.258.6416c.09.009.117.08.152.142-.035.061-.111.026-.175.04-.075-.014-.115-.136-.062-.182h.085zm.4896.2634c.122-.06.288.074.351.209-.1.068-.319.153-.39-.039.014-.064-.025-.133.039-.17m.3252.8114c.074.01.213.074.176.168-.119.146-.279 0-.35-.046-.064-.136.1-.122.174-.122m.3836-.1468c-.075.029-.208.099-.171-.062.07-.024.109.05.171.062m0 .3145h.09c.039.023.039.06.039.097-.064.022-.114-.051-.129-.097m-.1706-3.2715v-.147l.147.12c-.038.048-.099.013-.147.027m.5594.4312c.012-.06-.009-.129.064-.166.146.009.261.118.298.252-.116.135-.279.034-.362-.086m.7866.2316c.037-.085.135-.035.212-.048.152.122.127.35.085.518-.383.23-.283-.279-.297-.47m.5355-.145c.288.193.074.567.179.82-.091.039-.018.23-.179.168-.124 0-.012-.129-.086-.168-.025-.205.102-.569-.064-.787l.15-.033zm.2386 1.1348c-.037-.133.064-.341.148-.408.115.019.115.143.131.238-.016.11-.14.219-.279.17m.2377-.9563c.076.062.151.134.122.232-.034.076-.112.06-.175.06-.096-.071-.046-.193-.059-.292h.112zm.2466 1.453c-.074.062.027.263-.148.203-.152-.166-.114-.48-.037-.677h.123l.062.474zm-5.069-5.6715l-.124.103-.083-.211c.076-.074.188.013.207.108m-.2706-.2704c-.269.15-.239-.161-.35-.271.212-.127.323.123.35.271m-1.1002-2.3843c.112.064.079.17.091.269-.039.07-.115.049-.187.061-.126-.038-.126-.16-.116-.266.039-.099.139-.052.212-.064m.199 1.1347c.067.041.08.086.067.147-.04.111-.226.048-.238-.061.051-.037.063-.118.171-.086m-.0478-.2633c-.039-.094-.072-.267.024-.347.167 0 .138.174.214.266-.024.093-.164.152-.238.081m.7776.35c.033.074-.068.085-.097.122-.108-.014-.082-.095-.082-.18.06 0 .136-.014.179.058"/>
    <path fill="#ffffff" d="M55.6723 142.3332c.015.025.027.046.062.032l.051.521h.035c.015.067-.019.133.031.163.057-.059.021-.188.035-.285.136 0 .186-.228.35-.191.064.124.021.276.099.402l.047-.152c.105-.013.166.026.216.086.077.066 0 .129-.061.177-.128.041-.177-.058-.237-.111-.076.035-.043.1-.09.134-.112.108-.214-.044-.302-.081l-.057.081c-.272.03-.326-.286-.416-.447.065-.15.212-.173.237-.329m.903 1.1558c.321.171.408.509.449.784-.467.124-.262-.446-.487-.637-.031-.036-.063-.147.038-.147m.595 1.053c.155 0 .33.205.393.348-.166-.01-.288-.108-.431-.203.014-.053-.021-.124.038-.145m1.0117-.2686c.049.048.124.095.099.182-.05-.012-.099.025-.126-.03-.031-.043-.059-.152.027-.152m-.3234.5196c-.086-.021-.2-.159-.147-.189.334-.099.348.384.745.249-.262.154-.324-.166-.598-.06m.5354-.9557c.15-.081.305.03.305.184-.025.074-.115.098-.213.091-.053-.091-.117-.158-.092-.275m.19.7047c.011-.099-.215-.207 0-.23.047.023.144.071.115.168.008.072-.078.062-.115.062m.2308.3483c-.057-.037-.141-.143-.086-.203.079.06.19.095.243.166-.038.064-.103.027-.157.037m.3915-.555c.124-.033.139.048.236.09.088-.063-.082-.184.06-.26.075.014.2-.046.239.05 0 .168-.135.276-.083.472h-.064c-.11 0-.11-.112-.152-.182l-.06.058c0 .064 0 .133.037.184-.098.132-.286 0-.301-.12-.052-.136.077-.184.088-.292m.722 1.0782c.076.032.173.108.173.203-.008.094-.12.06-.173.11-.152-.027-.111-.168-.152-.255.041-.058.09-.074.152-.058m-.098-.8095v-.33h.098c.053.038.065.088.053.151.023.117-.053.15-.151.179m.2712.5178c.137.219-.219.205-.271.023.013-.035-.026-.094.036-.108.09-.012.175 0 .235.085m.5125.9792c.18-.039.267.154.362.267-.049.058-.107.083-.182.083-.137-.064-.213-.196-.18-.35m.541-.6663c-.029.23.2.567-.124.666-.055-.088-.201-.136-.15-.254.382-.195-.079-.498-.087-.702h.087c0 .134.173.218.274.29m-3.5032-7.1013c.148.085.33.255.214.438-.251.044-.309-.217-.356-.378.033-.051.082-.07.142-.06m-.023.8678h.152c.108.06.224.17.2.29-.052-.013-.103.012-.152.026-.097-.06-.272-.191-.2-.316m.3526-.7494c.024-.033.06-.033.1-.033.061.014.147.072.083.142-.15.052-.083-.07-.183-.109m.3596.875c-.088.076-.177.076-.26 0-.076-.159.094-.145.172-.186.088.013.098.108.088.186m.4482-.7212c-.024.053-.048.074-.114.104-.108-.014-.175-.074-.18-.168.081-.051.258-.051.294.064m-.0892.721c-.058.033-.046.191-.172.145v-.29h.088c.072.02.098.046.084.145m-.214.7478c.058-.01.085.023.12.06-.161.315.328.371.39.605-.015.035-.05.035-.093.035-.157-.173-.546-.401-.417-.7m.6955.493c-.092-.136-.3-.177-.21-.314.069.109.312.098.321.289-.022.046-.07.011-.111.025m.2007.207l.037.433-.148.023-.089-.35c.064-.037.101-.155.2-.106m.1484 1.1823c-.186.039-.21-.122-.238-.251h.062c.088.065.223.106.176.251m.3624-.145c-.037.221-.027.339.035.553l-.215-.205c.092-.47-.331-.723-.182-1.219.21-.108.083-.352.127-.518h.055c-.08.192.18.302 0 .457.092.327-.055.557.117.826 0 .034-.013.116.063.106m.0883-.021l-.088-.035c.024-.234-.027-.427-.063-.632.036 0 .077 0 .098-.038.154.157.076.484.053.705m.1007-.8114c-.226-.072-.164-.29-.216-.437.041-.111.166-.037.216.025-.05.157.283.354 0 .412m.1715.6063v.12h-.086c-.015-.065 0-.157.086-.12m.212.4614c0 .299.403.078.415.347.061.095.022.191-.028.268-.058.023-.101-.049-.15-.063-.161.166.166.212.092.429-.181-.018-.302-.191-.329-.366.039-.283-.189-.502-.189-.734l.189.119zm.7142-.61c.037.035.096.062.096.124-.013.152-.308.152-.299.024.055-.086.078-.169.203-.148m6.9463-11.9003h.023c.139.092.225.191.301.274-.038.101-.145.189-.26.18.012-.164-.08-.329-.064-.454m-.1716.4223c-.067.109-.216.161-.339.175v-.348c-.065-.157-.103-.373-.297-.419 0-.034 0-.076.037-.089.195-.077.457-.015.557.172-.212.189.18.311.042.509m-.7504-.357c.126.051.103.125.172.209.13.272-.182.388-.383.323.087-.058.201-.198.171-.304-.049-.004-.084.03-.108.069-.1.037-.185.198-.279.092.149-.092.164-.41.427-.389m-.4886.5073c-.062.136-.092.32-.256.369l-.069-.095c.015-.184.19-.286.325-.274m.2952-.9173c.021.288-.248.477-.412.638-.208.106-.297.437-.567.451-.051-.066-.121-.075-.088-.152.358-.256.705-.59.892-.994.06 0 .136-.017.175.057m-7.989.2086c.161-.086.435-.086.592 0 .138.396.598.525.955.645.387.407.966.232 1.331.453.028.154-.031.291-.142.408-.187-.012 0-.226-.173-.264-.087.073-.203.106-.167.257l-.132-.133c.002-.404-.405-.171-.501-.457-.518-.444-1.289-.308-1.786-.798.013-.039-.024-.125.023-.111"/>
    <path fill="#ffffff" d="M60.0662 130.1677c-.306.134-.592-.125-.923-.125-.181-.273-.611-.183-.671-.499l.295-.019c.376.286.806.548 1.299.643m1.3838 1.4103h-.214c-.258-.238-.071-.704-.377-.887l.208.051c.247.046.05.276.209.412-.15.24.223.207.174.424m-.6026-.5248c-.021.207.173.332.148.53-.462-.198-.354-.841-.673-1.221.023-.042.062-.085.108-.06.162 0 .2.152.211.254-.172.232.185.262.148.439-.011.037.025.072.058.058m2.174 10.7374h.109c-.028.288.018.491-.035.783-.219-.037-.108-.304-.168-.435 0-.131.103-.219.094-.348"/>
    <path fill="#ffffff" d="M63.2697 133.8016c.219.737.088 1.554 0 2.284-.124-.023-.104-.251-.193-.295l-.049.02c.152.306-.153.603.049.865l-.116.111c-.037-.086-.003-.223-.006-.316-.214-.311.031-.693-.214-.953-.042.198-.042.453 0 .652-.03.485.267.743.336 1.19.025.168-.116.468.037.602-.037.114.127.49-.153.49-.07-.176.109-.408-.161-.468-.012.025-.036.037-.025.06.149.408-.224 1.065.186 1.435.078-.21-.099-.357-.006-.596.073.036.137.093.203.204.071-.168-.119-.325 0-.491h.022c.147.181.236.441.236.715h-.11c-.023-.079-.065-.175-.148-.202l-.044.027c.291.518.445.965.357 1.67h-.165c.012-.24-.023-.441-.084-.634-.267.274.122.61 0 .885-.12.039-.183-.097-.194-.169-.003-.322-.07-.631-.166-.921 0-.166-.197-.212-.272-.31l-.025-1.061c-.088-.041-.074 1.055.025 1.518.368.405.036.896.151 1.373.023-.177.073-.346.183-.49.394.386-.272.658 0 1.103-.033.078-.062.179-.124.25-.16-.108-.076-.322-.123-.538-.012-.106.169-.17.064-.263-.064.021-.151.093-.214.021-.083-.103.063-.347-.114-.398l-.035.027c-.122-.083-.194-.226-.148-.393-.16-.155-.06-.34-.106-.489.046-.051.01-.203.144-.145.1.322.16.562.176.924.121-.185.121-.445.121-.636-.431-.373-.162-1.078-.234-1.554-.101-.129-.05-.249-.044-.419-.291-.206.353-.599-.199-.706 0-.036-.04-.1.021-.119.075 0 .159.058.172.119.014-.101.027-.236.034-.386.008-.132-.131-.247-.145-.38-.008-.124-.071-.175-.11-.284h.088c.073.046.082.116.12.182-.012-.295-.109-.656-.038-.978-.12-.192-.2-.417-.296-.622.04-.09-.073-.288.096-.259.217.226.377 1.166.479 1.018-.028-.337-.203-.902-.096-1.204.351-.034.052.367.264.471l.064-.056c.023-.113-.042-.186-.064-.272-.051-.361.111-.928.098-1.359.327.15.087.7.186 1.039.141-.256.116-.64.153-.955.083-.022.108.041.156.066"/>
    <path fill="#ffffff" d="M61.99 136.1134c-.036.078-.115.066-.179.066v-.172h.087c.027.034.092.06.092.106m.297 8.199c-.098.131-.185 0-.234-.097.037-.05.086-.059.147-.05.025.039.127.076.087.147m-.297-1.3024h.123v.076h-.123v-.076zm.4234-.387c.072.099-.024.179-.037.263l-.151-.084c.013-.08-.026-.179.038-.228.064-.015.113 0 .15.049m-.0866 1.981c.186.044.196.403.263.624-.077.028-.113-.035-.177-.046.064-.244-.15-.399-.086-.578m-.1512 3.9008h-.063l.027-.048c.013.011.036.021.036.048m.024.7618c-.074-.035-.06-.109-.06-.184h.124c.063.059.023.17-.064.184m-.1256-2.068h.102c.102.277.062.64.023.932h-.086c-.201-.267-.023-.618-.039-.932m.213 1.596c-.024.01-.036-.01-.062-.025h.062v.025z"/>
    <path fill="#ffffff" d="M62.3515 147.0077h.125v.142c.2.279.099.775.089 1.127-.476-.185-.239-.883-.214-1.269m.1502-.387c-.062-.014-.112-.074-.088-.148-.037-.094.088-.085.152-.085.074.038.045.113.06.184-.036.024-.076.07-.124.049m.456 2.895c-.058-.237-.063-.456.138-.603.093.014.153.073.131.17-.131.184-.023.362 0 .583l-.096.18c-.236.013-.035-.252-.173-.33m.2908-8.2854c.122-.049.175.074.232.147.073.134-.065.59-.292.286.031-.141-.049-.322.06-.433m.2315 2.9353c-.033.049-.093.049-.144.085v-.138h.144v.053zm-.2536-1.2562c.144.2.072.532.049.765-.205-.06-.198-.376-.245-.588.047-.068.06-.225.196-.177m-.3314.9756v-.481c.208.013.063.29.135.417-.023.046-.072.064-.135.064m-.1546 1.3818c.059-.01.108 0 .155.06-.034.383.062.751-.096 1.061-.201-.336-.135-.746-.059-1.121m-.03 2.0785l.03-.314c.074.109-.017.24-.03.314m.2173-4.436v.2c-.091.044-.153-.034-.128-.099.037-.035.062-.101.128-.101m.235 1.3057c.026.046.064.12.026.147l-.058.242c-.144.044-.11-.113-.11-.179.004-.079-.014-.259.142-.21m.0637 2.7556c-.064.263-.331.014-.299-.148.168-.382.03-.905.103-1.326 0-.195-.131-.341-.073-.559h.174c-.106.329.192.497.095.81.282.364-.149.763 0 1.223m0 .7017c-.023.06-.078.106-.149.085-.12-.037-.052-.161-.056-.23.11-.099.205.023.205.145"/>
    <path fill="#ffffff" d="M62.8614 148.42c-.496-.171.079-.543-.086-.956.232.099.05.461.152.666l.03-.026c.064-.025 0-.218.138-.146.228.064.078.367.131.547-.007.086-.095.166-.196.184-.182-.018 0-.221-.169-.269m-.0866-3.9398c-.01.083.025.195-.034.267l-.151-.205c.036-.087.151-.071.185-.062m-.2518-.2297l-.083-.062c-.126-.13-.064-.351-.064-.494.038-.05.05-.156.147-.108 0 .191.276.509 0 .664m.067-2.23l-.025.081-.088-.081h.113zm-.2632-.2653c-.076-.043-.076-.115 0-.148l.025.033c-.013.043.024.099-.025.115m1.0092-4.7898c-.196.06-.087-.226-.205-.276v-.36h.057c.045.039.045.084.088.125-.027.181.171.322.06.511m-.2404.145v-.095l.035.033c.009.029-.028.041-.035.062m.0672.067c.071 0 .152.032.2.113-.099.073-.214 0-.2-.113m.29-3.906c-.029.064-.09.074-.138.064l.082-.115.056.051zm-.3572.1856h-.132c-.068-.295-.198-.49-.102-.831h.096c.067.039.205.112.173.234-.173.168.103.378-.035.597m-.3552-2.3667c.159-.168.155-.597.423-.532l-.302.387c-.025.2.146.332.234.451-.168.021-.372-.119-.355-.306m.5956-.9563c.117.066.144.249.087.359h-.06c.084-.145-.144-.216-.027-.359m.0265 1.0853c-.064-.083-.232-.189-.174-.361.264-.076.11.252.264.318-.023.043-.056.043-.09.043m-.4842-1.1047c-.209-.018-.343.2-.504.207.061-.219.356-.269.413-.525.049-.234-.077-.396-.118-.589.071-.053.209-.053.26.057-.031.177.226.398 0 .555.113.113.158-.067.274-.023.036.18-.283.108-.325.318"/>
    <path fill="#ffffff" d="M62.5017 129.427c.088 0 .074.099.124.154-.114.021-.2-.074-.249-.131l.125-.023zm-.2767 1.5183c.038.191-.049.347-.151.451-.223-.17.051-.338 0-.537.079-.034.102.063.151.086m.298 1.5325c.028-.362-.285-.649-.384-.999h.06c.241.315.391.702.453 1.047-.062.026-.086-.023-.129-.048m-.3474 2.0856c-.102-.147-.05-.327-.211-.447.211-.119-.039-.322.025-.507h.15c.123.135.036.362.147.507-.036.157.103.447-.111.447m-.1856-2.236c.149.187.309.41.235.645-.248-.042-.235-.458-.327-.645h.092zm.235 1.043c.038-.06.102-.025.151-.035l.037-.446h.088c.11-.012.138.126.209.184 0 .223-.085.488-.27.596-.162-.011-.177-.186-.215-.299m.252 1.0746c-.078-.154-.138-.4-.064-.603.064 0 .137-.01.177.073-.04.168.101.481-.113.53m.2634-2.7537l-.088-.025c-.087-.207-.439-.396-.301-.636.048.014.126-.023.151.044.048.217.272.393.238.617m.3552-1.4918c.053.184-.321.248-.321.488-.076.07-.163.163-.273.145.151-.21.288-.566.594-.633m-.6822.4435c-.037.055-.086.076-.15.066v-.126c.064-.025.102.051.15.06m-.4878 2.3297c-.262.014-.301-.286-.35-.47.039-.051.088-.066.15-.066.251.054.138.402.2.536m-.2616-1.7534c.373.182.326.663.623.859.153.249-.123.207-.234.127-.163-.127-.178-.323-.242-.481-.061-.164-.111-.376-.235-.484.026 0 .06.02.088-.021m-1.7763-2.0183c.419.668 1.259.338 1.762.841.161.048.393.011.503.147-.414.23-.83-.06-1.236-.087-.322-.385-.906-.291-1.177-.758-.038-.111.037-.18.148-.143"/>
    <path fill="#ffffff" d="M60.6928 128.745c.16-.122.407-.043.557.049.89.015 1.697.128 2.61.128.089.088.282.15.208.357-.191.072-.329.334-.604.235.029-.179.318-.147.304-.326-.229-.178-.407.19-.66.179l-.025-.179c-.084-.116-.242-.266-.439-.205-.296.308-.618-.072-.919-.093-.379.345.301.286.388.497-.048-.009-.076.04-.122.04-.372-.136-.741-.21-1.099-.383-.023.028-.076.062-.05.106.518.201.916.707 1.57.594-.175.263-.5.152-.744.085-.271-.442-.753-.115-1.094-.38-.091-.158-.322-.186-.474-.299-.075-.368.444-.128.593-.405m3.511 1.1452c.035.122-.056.111-.119.207.048.187-.378.371-.065.468.258-.097.209-.574.5-.504l-.079.269c.014.172-.32.235-.147.412l.175-.154c.106-.023.01-.17.178-.118l-.037.065c.062.331-.685.419-.291.765l-.09.039c-.304-.23-.337.25-.563.384.081.099.146 0 .246 0v.117c-.047.141-.205.275-.358.266-.029-.098.065-.261-.097-.266l-.12.415c-.083.016-.108-.087-.168-.128-.205.227.3.351.15.596-.158-.026-.158-.258-.361-.298-.099-.071-.171-.283-.059-.409.549-.131.821-.622 1.057-1.092.156-.346-.445-.378-.313-.571.023.065.064.027.114.037.055-.06.135-.106.155-.18-.227-.014-.192-.32-.401-.32.087-.138.272-.172.401-.15.013.021-.02.037-.033.064.017.155.217.051.325.086"/>
    <path fill="#ffffff" d="M63.7567 130.9453c-.1-.012-.091-.12-.091-.212h.118c.081.06 0 .152-.027.212m.6027-2.1723l.168.505c0 .207-.244.225-.371.297l.168-.208c.084-.202-.121-.357-.168-.539.055-.034.115-.085.203-.055m1.5146.5074v.106l-.124.129c-.223.147-.444.527-.703.357l.297-.21c-.014-.034.025-.096-.038-.126-.189-.021-.408.117-.532.274-.095.02-.247-.025-.316-.148.069-.156.24-.111.354-.212.381.035.728-.158 1.062-.17m-.9155.9862c.109-.021.124.117.109.162.015.13-.158.154-.236.107 0-.078-.011-.251.127-.269m1.2815-1.0162h.162c-.139.466-.605.792-.959 1.078-.078-.019-.227-.078-.138-.207.327-.249.663-.53.935-.871m-.2422 1.232c.097.14.184.295.142.481-.152.081-.109.392-.366.286.033-.159.033-.316 0-.504.129-.102.097-.231.224-.263m-.3498.1606c-.051.076-.018.23-.156.216-.121-.076-.024-.204.025-.276.065-.014.092.03.131.06m-.2228.5003c.138 0 .125.164.125.285-.125.121-.293.411-.473.256.111-.182.315-.241.267-.497.026-.017.035-.058.081-.044m-.2316-.007v.168c-.039.078-.186.143-.207.035.06-.079.097-.203.207-.203m-.3022-.343c.527.186-.361.412-.06.838-.073.198-.226.385-.445.394-.23-.382.169-.486.298-.785-.051-.196.178-.283.207-.447m-.6557 1.771c0 .2-.216.21-.355.232.207-.335.639-.522.928-.718-.037.297-.395.276-.573.486m-.0797-.7458c.179.198-.083.362-.136.536-.209.059-.32.244-.512.321-.111-.373.553-.461.648-.857m-.6026 4.8995c.104.195.203.371.112.573-.024 0-.057 0-.08.032-.156-.209-.133-.4-.105-.605h.073zm0 1.186c.064.044.088.104.088.173-.056.089-.226.082-.279-.033.09-.036.067-.165.191-.14m-.191.576c.034-.048.09-.06.146-.06.087.025.125.122.109.202-.165.123-.188-.08-.255-.142m.631 2.5453l.027.205c.023-.157.203-.277.303-.373.11.049.11.108.152.207-.152.166-.311.408-.32.665-.082.18-.231.026-.344.026-.08-.194.262-.378.182-.548-.047.048-.094.11-.182.087-.028-.052-.111-.071-.092-.149.037-.12.173-.192.274-.12m.6912-.2298c.086-.035.244-.071.302.062-.078.108-.24.168-.327.063.016-.051-.026-.102.025-.125m.722-.8095c-.036-.081.061-.095.11-.081.018.01.052.019.041.058-.041.05-.101.011-.151.023m.775-.6398c-.262.025 0-.177-.062-.286-.249-.244.205-.145.152-.37.271.202-.123.407-.09.656m-.3022-.8908c-.048-.035-.06-.049-.06-.119h.233v.084c-.031.06-.109.025-.173.035m.0636 1.216c-.035.076-.111.049-.186.049v-.289h.122c.152.06-.047.157.064.24m-.1856.463c-.014.046-.078.014-.109.019v-.079h.082c.013.023.043.035.027.06m-.1484.1414c-.202.046-.142.325-.386.267-.09 0 0 .182-.155.113l.065-.15c.211-.014.173-.29.359-.29.066 0 .09 0 .117.06m-.4543-.5548c.05.223.069.403-.108.532-.155-.166.096-.329.061-.532h.047zm-1.489 3.1407c-.278-.189.054-.468.118-.702.097-.139.284-.039.4-.111-.204.23-.227.694-.518.813m1.0808-.4684c-.113-.255.24-.279.322-.465.065-.116.049-.332-.151-.288-.076.099-.195.195-.233.316-.221-.077-.357-.037-.456.047 0-.004 0-.006.007-.008.062-.306.284-.579.596-.643.215.064.454.085.575.288-.225.279-.264.765-.66.753m-1.027.8537c.064-.094.12.019.197 0 .03.067-.064.067-.105.097l-.092-.097zm.197.447c-.065-.033-.105-.108-.036-.143.044.014.088-.023.113.035.027.089-.037.089-.077.108m.2395-.9295c-.069.012-.124 0-.162-.043.141-.109.093-.328.264-.439.091.012.203-.05.251.051-.048.203-.251.289-.353.431m.2953.9295c-.051.071-.066.143-.194.127-.057-.09 0-.207.067-.235.049.028.152.039.127.108m.2087.0373l-.035-.18c.146-.147.183-.334.443-.253v.085c-.109.12-.196.348-.408.348m-.4022 1.6167c.013-.069-.022-.166.04-.226.163-.115.251.06.294.168l.068-.518c.048.01.112-.025.149.021.12.051.12.207.109.329l-.21.35c-.135.038-.322-.075-.45-.124m.966-1.7617c-.058.145-.216.281-.362.338v-.193c.107-.071.206-.203.362-.145m.4242 1.2067c-.066.138-.362.4-.277.06.121-.132-.048-.249 0-.373.07.083.325.134.277.313m-.191 1.575c0-.062-.016-.182.101-.148.039.023.122 0 .09.086-.039.072-.113.062-.191.062m.191-.6205v.039c-.023.046-.08.01-.131.023 0-.062.108-.099.131-.062m-.039-.189c-.103-.012-.254.152-.324-.037.013-.097.107-.195.232-.232.092-.033.24-.072.302.037.013.133-.148.119-.21.232m-.562-.3765c.009-.23 0-.41-.129-.619-.027-.046.041-.107.09-.083.158.062.348.216.277.437-.042.134-.08.265-.238.265m0 .981c.108-.051.119.08.147.143-.052.195-.235.278-.423.315l-.024-.089c.074-.153.062-.346.3-.369m-.7495.744l-.04-.191c.228-.23.316-.53.367-.786.083-.084.06-.241.238-.183.17.17-.083.29-.116.439-.155.254-.122.659-.449.721m-.0865-.456c-.046-.242.113-.521.265-.665.08.011.097.096.08.17-.156.145-.136.444-.345.495m-.2175-.265c-.237-.074.08-.244-.037-.376.087-.047.087-.193.214-.145.065.083.03.217.04.326-.075.061-.086.205-.217.195m-.328 1.511c-.095 0-.033-.134-.048-.209.102-.242.247-.443.299-.747.03-.062.093-.087.171-.087.148.331-.276.511-.207.81-.055.024-.016.099-.029.145-.051.049-.105.123-.186.088m-.1855-.523c.128-.119.013-.41.239-.41v.122c-.111.085.028.385-.239.288"/>
    <path fill="#ffffff" d="M63.48 145.3728c.128-.032.044-.156.073-.228.104-.254.327-.398.559-.497.224.013.364-.433.572-.168-.008.062.024.135-.024.168-.068.135-.247.099-.362.145-.128.051-.174.17-.142.29.157.414-.355.534-.304.955-.096.134-.041.425-.299.388-.123-.348-.044-.7-.073-1.053m-.083-.3093c-.194-.064 0-.281-.034-.437.233-.109.034-.531.394-.376.044-.108.123-.23.095-.327h.168c.092.256-.104.422-.209.582-.303.098-.154.433-.414.558m.6637 5.1858c.263-.019.299-.443.564-.237-.041.304-.414.451-.688.52.032-.062.032-.23.124-.283m-.304-.152c.253-.14.263-.431.541-.605.088.016.2-.024.258.024.104.123-.036.22-.104.289-.181.138-.365.207-.535.393-.065 0-.197.01-.16-.101m-.5082 1.451c-.029-.125.075-.198.066-.311.056-.112.194-.039.239.055.103.173-.157.461-.305.256m-.5382.7637c.217-.099.115.189.254.253.107-.182-.037-.458.132-.605.319.17-.075.423 0 .7-.297-.122-.019.303-.235.338-.262-.145-.138-.474-.151-.686m.03-.7053l.155.207c0 .095.008.205-.096.269.026-.183-.174-.39-.059-.476"/>
    <path fill="#ffffff" d="M63.6418 150.739c-.071.108-.148.108-.245.058-.248.195-.389.412-.32.751l-.055.123c-.281-.087.055-.413-.094-.642-.029.026-.051.034-.033.062h-.12v-.232c-.135-.18-.034-.362 0-.557-.065-.144-.252-.086-.335-.086l.083.272c-.298.166-.133-.29-.347-.391l.176-.107c.161-.144-.053-.279-.025-.433.263-.29-.04-.608.15-.932.089-.01.175 0 .233.085-.019.122.055.265-.058.35-.187.171-.062.376.025.558.033-.061.088-.051.123-.102.104.221.14.474.222.7.008.014.021-.007.055-.018.054-.101.026-.24.199-.185.233.111.06.379.148.519.085.014.193-.021.242.039 0 .062.034.154-.024.168m-.5462 5.859c-.066-.012-.109-.069-.074-.142.069-.01.152-.111.227-.031v.049c-.045.055-.1.112-.153.124m-.3853-.0583c.115-.366-.011-.847.254-1.122.113.01.239-.054.284.047-.206.228-.321.552-.284.819-.15.19-.103.581-.463.609-.125-.185.176-.194.209-.353m.03 2.441c0-.242-.255-.35-.115-.619.124.098.332.317.339.534.023.108-.151.205-.224.085m-.099-1.0712c-.01-.08 0-.168.088-.224.069-.018.101.01.155.031.073.193-.131.35-.243.193m.3227.5745c-.006-.168-.103-.458.113-.58.063-.04.21-.071.259.023-.117.154-.173.444-.372.557m.3508-.083v.106c-.088.037-.066.184-.184.145l.032-.168c0-.073.113-.122.152-.083m.4684-.29c-.091.207-.025.528-.3.615-.064-.042-.105-.159-.093-.265.163-.095.149-.377.393-.35m-.753 1.05c.062-.12.041-.29.176-.35.048.095.149.112.149.23-.049.132-.263.447-.325.12m-.1262.3003c.402-.021-.028.249.089.412-.427.27-.035-.334-.323-.412-.028-.069.037-.115.081-.166.219-.048 0 .122.153.166m-.8512-1.4086l.065-.051c-.141-.159.037-.425-.153-.559h.088c.078.115.274.175.212.318.138.156-.014.434.122.582-.035.263.166.456.179.698-.265-.011-.265-.341-.411-.493-.021-.041-.03-.087-.03-.138l-.072-.299c-.051.064-.162.179-.262.084-.066-.11.1-.132.084-.225.076-.018.165.007.178.083m-2.3948-3.3617c-.187 0-.303-.172-.426-.292l.039-.033c.2 0 .299.168.387.325m-.0637-.435c0-.11.119-.055.182-.062.08.062.131.145.152.23-.035.035-.072.07-.124.06-.102-.072-.198-.131-.21-.228m.7457.541c.152.219.267.035.426 0 .115.051.175.17.151.288-.087.163-.276.06-.425.088-.216-.088-.488-.157-.599-.341.111-.092.325-.056.447-.035m.6912.5196c.386-.191.42.581.809.265.1.073.185.111.15.265-.079.073-.161.103-.265.089-.274-.147-.682-.281-.694-.619"/>
    <path fill="#ffffff" d="M61.3025 154.8323c.078-.072.178-.009.24.051 0 .195.094.386.15.534-.15.032-.242-.053-.322-.148.056-.184-.279-.275-.068-.437m.2112-.12c-.071-.032-.063-.108-.063-.17h.092c.059 0 .081.076.121.112-.04.046-.088.072-.15.058m.327-.6028c.161.049.185.216.233.338-.244.185-.307-.143-.381-.315l.148-.023zm.3588 1.93c-.235-.214-.11-.622-.449-.829.041-.157-.038-.47.175-.499.288.098-.014.305 0 .462.274.122.14.408.426.495-.053.131.125.445-.152.371m.3022-1.2637c.033 0 .074-.016.088.021-.055.348.2.424.21.726.014.109-.148.146-.089.266-.071.01-.135.109-.209.026.01-.208.01-.507-.15-.67-.053-.15.062-.261.15-.369m.0883-.4366c-.15-.095-.164-.347-.238-.518-.101-.329-.074-.689-.3-.968l.087-.023c.326.267.227.519.384.844-.058.257.141.409.067.665m-.3268-1.8842h.064c.062.069.249.18.15.313-.15 0-.313-.157-.214-.313m-.571-.06h-.09v-.147c.061.025.11.075.09.147m-.8978-.3464c-.076-.044-.138-.064-.153-.148.04-.052.087-.059.153-.059.058.034.157.08.123.177-.049-.023-.077.035-.123.03m-.753-.935h.148v.06c-.049-.009-.148.035-.148-.06m-.2368-.3996c-.012.111-.21.145-.302.062-.084-.122-.196-.221-.148-.384.278-.062.24.262.45.322m.0256-.226c-.038-.272-.36-.376-.476-.58l.065-.062c.14-.012.249.062.357.143.09.085-.064.181 0 .261.08.019.191-.041.238.052.176.122-.047.474-.184.186m.6354.3976c-.384-.039-.148-.375-.299-.583.037-.043.087-.053.151-.053.175.102.364.247.364.464 0 .112-.14.145-.216.172m.3288-.433c.249-.06.173.214.271.324h-.089c.037-.181-.258-.156-.182-.324m1.1956.8394c.362-.033.047.362.273.462.103-.179.036-.34.089-.545l.088.028c-.088.456.3.759.125 1.218-.111-.133-.151-.315-.213-.437v-.084c.024-.059-.038-.106-.089-.092.064.226-.226.226-.21.47-.089.021-.128-.039-.178-.088-.183-.133.079-.156.115-.264-.026-.147.075-.445-.092-.555.043-.037.127-.037.092-.113"/>
    <path fill="#ffffff" d="M60.7944 151.2373c-.015-.072-.228-.196-.066-.295.452.016.347.496.574.728.103-.232-.122-.423-.147-.608h.084c.074.039.228.146.241.258.071-.051-.029-.171.095-.207.165.023.266.156.323.292l-.023.325c-.072-.014-.175.035-.211-.06-.122.119.102.179.028.314-.117.146-.225-.076-.322-.109-.153.095.081.216 0 .314h-.131c-.084 0-.122-.098-.148-.141-.048-.14-.15-.318-.06-.442.095-.192-.163-.298-.237-.369m.9853-1.9707c.119.142.146.4.095.603-.124-.064-.124-.276-.251-.402.052-.07.013-.228.156-.201m.031.9314h.154c.101.21.249.348.362.578-.261-.062-.523-.352-.516-.578m.3287-.4737l-.149-.106c-.013-.062.024-.087.063-.126.037.016.099-.024.122.023.024.062.063.209-.036.209m-.0866-3.938c.072.033.147.06.123.17-.037.081-.051.263-.186.144-.036-.098-.064-.281.063-.314m-.0274-1.2813c.225.129.174.412.262.617 0 .192.138.323.214.495v.339c-.476.072-.112-.46-.389-.666-.047-.12-.039-.352-.122-.497-.037-.072-.079-.251.035-.288m-.2748 2.5027c-.058-.037-.136-.162-.058-.244h.182c.066.099.024.267-.124.244m.1474-3.7095c.092.016.116.097.127.168-.084.208-.084.444-.127.657-.095.092-.148-.011-.206-.076.033-.199-.068-.328-.09-.496.048-.134.138-.237.296-.253m-.355-1.11h-.092l.063-.049c.013.012.037.02.029.049m-.092 1.5678c.163.111.173.41.241.579-.191-.074-.353-.381-.241-.579m.213-1.391c.35-.046.061.277.211.4.115.234-.199.189-.251.121-.022-.189-.062-.35.04-.521m.3888-.083c-.162-.18-.063-.569-.088-.783-.074-.147-.113-.292-.09-.474.051-.046.09-.104.178-.085.234.354.021.895.172 1.28-.036.074-.112.05-.172.062m0-3.4767h-.127c-.062-.184-.115-.462-.085-.675.196.182.233.449.212.675m0-1.695c-.039.049-.088.062-.155.049-.094-.049-.069-.16-.118-.236h.095c.102.016.162.076.178.187m-.3022-1.6403l.09-.062c.058.011.113.074.085.145-.051.152-.185-.023-.175-.083m.1474-1.838c-.087.078.079.339-.148.283-.136-.198-.237-.431-.148-.667.209-.028.201.26.296.384m-.5955-1.278c.088.009.199.083.148.171-.096.027-.188-.063-.234-.111.023-.027.037-.079.086-.06m-1.8072-1.6632c.117.012.195.159.203.272-.119 0-.212-.141-.273-.243.027-.017.04-.041.07-.029m-2.82-.638c.275.03.725.113.953-.145.425-.035.858.242 1.13.56.132.014.272.073.348.166-.084.034-.256.009-.291-.081-.288-.065-.484-.338-.753-.459-.092-.041-.264-.074-.345.021.118.09.313.051.372.205-.21-.011-.447-.096-.667-.142-.252-.049-.547.099-.747-.125"/>
    <path fill="#ffffff" d="M56.2652 129.2468c.4.392 1.023.406 1.537.343.447-.274.585.378.956.378.272.346.698.4 1.166.417.319.103.475.465.487.746.116.226.226.577.506.633.301-.083.384.164.596.028.093.085.26.211.147.373-.224-.125-.495-.009-.704-.221-.479.032-.408-.537-.738-.717.162-.138-.116-.289-.102-.457-.19-.136-.352-.212-.494-.385l-.035.032c-.191.141-.399-.012-.557-.094-.323 0-.558-.293-.746-.481-.293.126-.396-.231-.687-.109-.175.263-.606.127-.889.109-.172-.455-.676-.158-.999-.4.018-.266.364-.126.556-.195"/>
    <path fill="#ffffff" d="M60.889 132.1738c-.155.145-.239-.069-.379-.088-.557-.2-.392-.737-.658-1.142.234-.059.151.2.275.297.012-.004.014-.018.024-.021l.069.387c.16.351.435.385.669.567m-5.155-2.4462c.212.127.541-.147.649.103-.048.024-.108.121-.173.045-.273-.123-.672.124-.748-.214.1 0 .202-.008.272.066m-1.146-.5108c.25-.043.502-.164.723-.148l-.024.079c-.224.053-.522.152-.699.069m.8138.2102c-.127.161-.348.051-.478.212-.122.094-.37.06-.448-.058.2-.244.599-.168.859-.302.067.039.079.088.067.148m.1467-.2792c0-.133-.099-.226-.147-.357.108-.117.246-.122.384-.148.065.148.263.208.279.395-.169.064-.317.151-.516.11m3.4227-1.1312c.531.113 1.043.366 1.521.576-.261.177-.599.223-.859.412-.525.143-1.101.184-1.626.332-.539.113-1.111.076-1.584-.208.186-.136.439-.124.688-.124.452.422.994-.012 1.473-.083.35 0 .648-.014 1.01-.094.119-.093.362-.078.362-.235-.189-.21-.298.115-.514.05-.721-.108-1.223.307-1.879.332-.28-.248-.719-.159-1.026-.124-.215.124-.374-.077-.473-.233.008-.211.359-.269.57-.361.21.103.291.285.498.361.431-.06.803.132 1.196-.06.315-.016.691-.062 1.027-.09.064-.039.064-.098.087-.149-.324-.177-.634.064-.985.03-.376.294-.763-.207-1.133.094-.192-.023-.273-.186-.362-.301.313-.072.645-.374.958-.056.311.056.779.134 1.051-.069"/>
    <path fill="#ffffff" d="M57.984 127.808c.023.014.034-.009.049-.029.212-.072.487-.014.598.154-.198.084-.562.096-.647-.125m3.443-.1113c-.31.01-.476-.378-.725-.428.225-.13.501-.12.778-.12.122.201.395.12.594.182.224.032.502-.414.636 0-.521-.113-.784.437-1.283.366m3.0826-.4277c-.585-.285-1.246.329-1.71-.17.536-.09 1.081.013 1.614.018.048.043.16.032.117.131l-.021.021z"/>
    <path fill="#ffffff" d="M64.6846 127.633c-.728.134-1.654.134-2.333 0l.088-.058c.663.191 1.202-.357 1.858-.129.449.261.611-.414 1.046-.177v.177c-.226.063-.385.261-.659.187m.9244-.364c.062-.021.106.043.122.062l-.122.032v-.094z"/>
    <path fill="#ffffff" d="M65.404 127.96c-.476.17-1.02.161-1.536.23-.322-.122-.643.012-.973-.111-.523.146-1.044.023-1.572-.062-.435.167-.732-.149-1.062-.301-.239-.097-.527-.028-.695-.267.53-.16 1.065.029 1.603.419.941-.069 1.852.124 2.817.06.421.221.867-.034 1.275-.12.454.049.613-.663 1.06-.359-.183.331-.579.511-.917.511m1.1382-.5142c.038.009.101-.021.111.039l-.084.09c-.045-.032-.085-.08-.027-.129"/>
    <path fill="#ffffff" d="M66.6535 128.1068c-.336.023-.675.189-.983.212-.396.159-.899.189-1.346.177l-.408.147c-.593 0-1.366.173-1.927-.147-.387.307-.834-.067-1.224-.028-.411-.211-.821-.382-1.263-.534-.21-.272-.634-.076-.828-.301.532-.415.932.225 1.427.264.49.523 1.253.099 1.797.452.927-.143 1.767.294 2.611-.03.684-.222 1.555-.05 2.095-.567.202-.133.463-.306.714-.154-.07.299-.414.398-.665.509"/>
    <path fill="#ffffff" d="M65.388 128.782l-.111.058c-.221.037-.429.071-.589-.025.16-.408.565-.07.93-.176.38-.212.812-.294 1.24-.382.372-.062.476-.638.872-.527.019.159-.095.255-.147.379-.658.401-1.39.607-2.195.673m2.4993-.7654c0-.109.163-.237.238-.148-.061.028-.121.201-.238.148"/>
    <path fill="#ffffff" d="M70.7656 129.2238c-.425.412-1.061.327-1.585.486l-.369.21c-.302.117 0-.316-.288-.244 0-.09-.159-.203-.091-.302.2-.056.364.037.534-.113-.247-.308-.673.103-1.023-.123-.161-.298-.558.109-.662-.236.128-.168.448-.152.402-.383-.434.215-.883.417-1.407.442-.192.123-.364-.008-.539.116-.338.023-.657.225-.998.061l.063-.061c.886-.054 1.783-.267 2.583-.625.235-.267.703-.045.896-.446.151-.092.297-.092.451 0-.114.426-.562.161-.851.357-.052.2.173.069.252.156.311.034.57-.057.833-.156.234-.028.497-.221.713 0-.361.19-.787.235-1.205.329-.193.261-.431-.117-.645.081-.07.067-.004.18.052.188.289.101.551.077.787-.087.235 0 .449-.088.655-.182.312 0 .577-.348.866-.117-.112.175-.323.226-.51.299-.097.079-.287.062-.302.239.166.164.327-.051.489-.06.245-.151.523-.424.839-.28-.327.34-.885.474-1.382.578-.143.135-.47-.049-.544.209l.062.064c.612-.098 1.27-.128 1.737-.511.197-.029.418-.363.577-.06-.103.122-.262.122-.39.171"/>
  </g>
</svg>
